<svg width="1441" height="89" viewBox="0 0 1441 89" fill="none" xmlns="http://www.w3.org/2000/svg">
<g filter="url(#filter0_ddd_0_2245)">
<rect x="1281.44" y="21.0073" width="138.048" height="36.0125" rx="10" fill="white"/>
</g>
<mask id="mask0_0_2245" style="mask-type:alpha" maskUnits="userSpaceOnUse" x="1290" y="29" width="13" height="21">
<g clip-path="url(#clip0_0_2245)">
<g clip-path="url(#clip1_0_2245)">
<path d="M1290.95 30.5106H1302.95V36.5127H1296.95L1290.95 30.5106ZM1290.95 36.5127H1296.95L1302.95 42.5148H1296.95V48.5168L1290.95 42.5148V36.5127Z" fill="black"/>
</g>
</g>
</mask>
<g mask="url(#mask0_0_2245)">
<rect x="1290.95" y="29.0101" width="12.0042" height="20.0069" fill="black"/>
</g>
<mask id="mask1_0_2245" style="mask-type:alpha" maskUnits="userSpaceOnUse" x="1312" y="34" width="98" height="11">
<g clip-path="url(#clip2_0_2245)">
<g clip-path="url(#clip3_0_2245)">
<path d="M1404.72 43.5463V36.5809H1406.3V37.7433H1406.36C1406.49 37.3401 1406.7 37.032 1407 36.816C1407.32 36.5959 1407.69 36.4828 1408.08 36.4918C1408.17 36.4918 1408.28 36.4958 1408.38 36.5049C1408.49 36.5129 1408.58 36.5219 1408.65 36.5299V38.0164C1408.54 37.9934 1408.43 37.9784 1408.32 37.9724C1408.18 37.9554 1408.03 37.9474 1407.88 37.9474C1407.59 37.9474 1407.33 38.0104 1407.1 38.1374C1406.87 38.2605 1406.69 38.4375 1406.56 38.6706C1406.42 38.9237 1406.35 39.2088 1406.36 39.4959V43.5473L1404.72 43.5463ZM1400.27 43.6923C1399.57 43.6923 1398.97 43.5443 1398.46 43.2482C1397.95 42.9481 1397.56 42.5259 1397.29 41.9848C1397.02 41.4426 1396.88 40.8123 1396.88 40.0921C1396.88 39.3819 1397.02 38.7516 1397.29 38.2064C1397.54 37.6803 1397.95 37.2381 1398.44 36.93C1398.94 36.6209 1399.52 36.4668 1400.18 36.4668C1400.63 36.4668 1401.05 36.5429 1401.43 36.6949C1401.83 36.843 1402.17 37.068 1402.47 37.3682C1402.77 37.6643 1403 38.0354 1403.16 38.4785C1403.33 38.9187 1403.41 39.4339 1403.41 40.0221V40.5122H1397.61V39.3929H1402.6L1401.85 39.71C1401.85 39.3578 1401.79 39.0067 1401.65 38.6816C1401.54 38.4045 1401.34 38.1674 1401.09 38.0014C1400.85 37.8373 1400.54 37.7543 1400.19 37.7543C1399.84 37.7543 1399.54 37.8373 1399.28 38.0024C1399.03 38.1674 1398.83 38.3925 1398.7 38.6756C1398.56 38.9767 1398.49 39.3038 1398.5 39.6339V40.3842C1398.5 40.8113 1398.57 41.1775 1398.72 41.4816C1398.86 41.7817 1399.07 42.0128 1399.34 42.1738C1399.62 42.3309 1399.93 42.4089 1400.3 42.4089C1400.55 42.4089 1400.77 42.3729 1400.97 42.3009C1401.16 42.2318 1401.34 42.1208 1401.49 41.9768C1401.63 41.8367 1401.74 41.6706 1401.8 41.4756L1403.31 41.6857C1403.21 42.0778 1403.02 42.4379 1402.74 42.733C1402.46 43.0331 1402.11 43.2682 1401.69 43.4373C1401.27 43.6073 1400.8 43.6913 1400.27 43.6913V43.6923ZM1385.62 43.5463V36.5809H1387.17L1387.22 38.2064H1387.1C1387.21 37.8043 1387.37 37.4762 1387.58 37.2221C1387.78 36.975 1388.04 36.7789 1388.33 36.6509C1388.61 36.5239 1388.91 36.4608 1389.22 36.4608C1389.74 36.4608 1390.16 36.6169 1390.49 36.93C1390.83 37.2431 1391.06 37.6853 1391.17 38.2575H1390.97C1391.05 37.8953 1391.21 37.5582 1391.45 37.2731C1391.67 37.011 1391.95 36.804 1392.27 36.6699C1392.6 36.5289 1392.95 36.4578 1393.31 36.4598C1393.73 36.4598 1394.11 36.5529 1394.45 36.7399C1394.79 36.922 1395.06 37.1921 1395.26 37.5522C1395.45 37.9123 1395.55 38.3545 1395.55 38.8797V43.5463H1393.92V39.1268C1393.92 38.6866 1393.8 38.3655 1393.56 38.1614C1393.32 37.9534 1393 37.8433 1392.68 37.8513C1392.42 37.8513 1392.19 37.9083 1391.99 38.0214C1391.8 38.1344 1391.64 38.2995 1391.54 38.4985C1391.43 38.7166 1391.38 38.9587 1391.38 39.2028V43.5463H1389.8V39.0507C1389.8 38.6866 1389.68 38.3965 1389.45 38.1804C1389.23 37.9604 1388.94 37.8503 1388.59 37.8503C1388.35 37.8503 1388.12 37.9083 1387.92 38.0224C1387.72 38.1374 1387.55 38.3065 1387.44 38.5115C1387.32 38.7266 1387.26 38.9937 1387.26 39.3118V43.5463H1385.62ZM1380.27 43.6803C1379.7 43.6803 1379.2 43.5363 1378.76 43.2482C1378.32 42.9561 1377.98 42.5409 1377.72 42.0038C1377.47 41.4656 1377.35 40.8234 1377.35 40.0731C1377.35 39.3158 1377.48 38.6676 1377.73 38.1304C1377.99 37.5922 1378.34 37.1821 1378.78 36.898C1379.22 36.6139 1379.74 36.4658 1380.27 36.4728C1380.65 36.4728 1380.97 36.5339 1381.23 36.6569C1381.5 36.7759 1381.72 36.927 1381.89 37.1141C1382.06 37.2961 1382.2 37.4822 1382.3 37.6733H1382.36V36.5809H1383.98V43.5463H1382.36V42.4609H1382.3C1382.19 42.673 1382.05 42.8671 1381.88 43.0381C1381.71 43.2252 1381.48 43.3792 1381.22 43.5023C1380.92 43.6283 1380.59 43.6883 1380.27 43.6803ZM1380.7 42.3279C1381.06 42.3279 1381.36 42.2338 1381.62 42.0478C1381.88 41.8437 1382.08 41.5686 1382.19 41.2545C1382.33 40.9114 1382.4 40.5152 1382.4 40.0671C1382.4 39.6139 1382.33 39.2198 1382.19 38.8867C1382.08 38.5746 1381.88 38.3025 1381.62 38.1044C1381.37 37.9183 1381.06 37.8253 1380.7 37.8253C1380.34 37.8253 1380.04 37.9183 1379.79 38.1054C1379.54 38.2915 1379.35 38.5516 1379.22 38.8857C1379.09 39.2198 1379.02 39.6139 1379.02 40.0661C1379.02 40.5162 1379.08 40.9094 1379.22 41.2475C1379.35 41.5866 1379.54 41.8507 1379.79 42.0418C1380.04 42.2318 1380.35 42.3279 1380.7 42.3279ZM1372.89 43.5463V36.5809H1374.47V37.7433H1374.52C1374.65 37.3401 1374.86 37.032 1375.17 36.816C1375.47 36.5999 1375.82 36.4918 1376.24 36.4918C1376.34 36.4918 1376.44 36.4958 1376.54 36.5049C1376.65 36.5129 1376.74 36.5219 1376.81 36.5299V38.0164C1376.7 37.9934 1376.59 37.9784 1376.49 37.9724C1376.34 37.9554 1376.19 37.9474 1376.04 37.9474C1375.75 37.9474 1375.49 38.0104 1375.26 38.1374C1375.03 38.2605 1374.85 38.4375 1374.72 38.6706C1374.58 38.9237 1374.52 39.2088 1374.52 39.4959V43.5473L1372.89 43.5463ZM1365.62 43.5463V34.085H1371.78V35.5205H1367.31V38.2765H1371.39V39.692H1367.31V43.5463H1365.62ZM1356.24 39.5079V43.5463H1354.6V36.5809H1356.17L1356.19 38.3145H1355.99C1356.19 37.7093 1356.49 37.2521 1356.88 36.943C1357.27 36.6299 1357.75 36.4728 1358.33 36.4728C1358.81 36.4728 1359.23 36.5769 1359.59 36.7839C1359.96 36.991 1360.24 37.2941 1360.44 37.6923C1360.64 38.0854 1360.74 38.5686 1360.74 39.1398V43.5463H1359.11V39.3939C1359.11 38.9107 1358.99 38.5386 1358.74 38.2765C1358.5 38.0094 1358.17 37.8763 1357.73 37.8763C1357.45 37.8763 1357.19 37.9394 1356.96 38.0664C1356.73 38.1924 1356.55 38.3825 1356.43 38.6126C1356.3 38.8537 1356.24 39.1528 1356.24 39.5079ZM1351.32 43.5463V36.5809H1352.96V43.5463H1351.32ZM1352.14 35.5775C1351.89 35.5835 1351.64 35.4905 1351.46 35.3174C1351.28 35.1514 1351.18 34.9153 1351.18 34.6692C1351.18 34.4251 1351.28 34.192 1351.46 34.029C1351.64 33.8529 1351.89 33.7569 1352.14 33.7619C1352.41 33.7619 1352.63 33.8499 1352.82 34.028C1353.01 34.2021 1353.11 34.4151 1353.11 34.6692C1353.11 34.9233 1353.01 35.1394 1352.82 35.3174C1352.64 35.4905 1352.39 35.5835 1352.14 35.5775ZM1343.71 43.6923C1343.01 43.6923 1342.41 43.5443 1341.9 43.2482C1341.39 42.9501 1340.98 42.5109 1340.72 41.9848C1340.45 41.4426 1340.32 40.8123 1340.32 40.0921C1340.32 39.3819 1340.45 38.7516 1340.72 38.2064C1340.98 37.6803 1341.38 37.2381 1341.88 36.93C1342.37 36.6209 1342.95 36.4668 1343.61 36.4668C1344.06 36.4668 1344.48 36.5429 1344.87 36.6949C1345.26 36.842 1345.61 37.071 1345.91 37.3682C1346.2 37.6643 1346.43 38.0354 1346.6 38.4785C1346.77 38.9187 1346.85 39.4339 1346.85 40.0221V40.5122H1341.05V39.3929H1346.03L1345.28 39.71C1345.28 39.3168 1345.22 38.9737 1345.09 38.6816C1344.97 38.4045 1344.78 38.1674 1344.53 38.0014C1344.28 37.8373 1343.98 37.7543 1343.63 37.7543C1343.31 37.7463 1342.99 37.8323 1342.72 38.0024C1342.46 38.1674 1342.27 38.3925 1342.13 38.6756C1342 38.9767 1341.93 39.3038 1341.94 39.6339V40.3842C1341.94 40.8113 1342.01 41.1775 1342.15 41.4816C1342.3 41.7817 1342.51 42.0128 1342.78 42.1738C1343.05 42.3309 1343.37 42.4089 1343.73 42.4089C1343.98 42.4089 1344.21 42.3729 1344.41 42.3009C1344.6 42.2318 1344.78 42.1208 1344.92 41.9768C1345.07 41.8367 1345.17 41.6706 1345.24 41.4756L1346.75 41.6857C1346.65 42.0778 1346.46 42.4379 1346.18 42.733C1345.9 43.0331 1345.55 43.2682 1345.12 43.4373C1344.67 43.6123 1344.19 43.6993 1343.71 43.6913L1343.71 43.6923ZM1335.28 43.6803C1334.74 43.6893 1334.21 43.5393 1333.76 43.2482C1333.32 42.9561 1332.98 42.5409 1332.73 42.0038C1332.48 41.4656 1332.35 40.8234 1332.35 40.0731C1332.35 39.3158 1332.48 38.6676 1332.73 38.1304C1332.99 37.5922 1333.34 37.1821 1333.78 36.898C1334.22 36.6149 1334.71 36.4728 1335.27 36.4728C1335.65 36.4728 1335.96 36.5339 1336.23 36.6569C1336.49 36.7759 1336.71 36.927 1336.88 37.1141C1337.05 37.2961 1337.19 37.4842 1337.29 37.6793H1337.35V34.085H1338.98V43.5463H1337.38V42.4539H1337.31C1337.2 42.669 1337.05 42.8661 1336.89 43.0381C1336.7 43.2332 1336.47 43.3912 1336.23 43.5023C1335.96 43.6203 1335.65 43.6803 1335.28 43.6803ZM1335.7 42.3279C1336.06 42.3279 1336.36 42.2338 1336.61 42.0478C1336.88 41.8437 1337.08 41.5686 1337.19 41.2545C1337.33 40.9114 1337.4 40.5152 1337.4 40.0671C1337.4 39.6139 1337.33 39.2198 1337.19 38.8867C1337.08 38.5746 1336.88 38.3025 1336.61 38.1044C1336.35 37.9143 1336.03 37.8163 1335.7 37.8253C1335.37 37.8163 1335.05 37.9153 1334.79 38.1054C1334.54 38.2915 1334.35 38.5536 1334.21 38.8917C1334.08 39.2688 1334.02 39.6669 1334.02 40.0671C1334.02 40.5152 1334.09 40.9094 1334.22 41.2475C1334.35 41.5866 1334.54 41.8507 1334.79 42.0418C1335.04 42.2318 1335.34 42.3279 1335.7 42.3279ZM1327.31 43.6803C1326.78 43.6893 1326.25 43.5393 1325.8 43.2482C1325.36 42.9561 1325.02 42.5409 1324.77 42.0038C1324.52 41.4656 1324.39 40.8234 1324.39 40.0731C1324.39 39.3158 1324.52 38.6676 1324.77 38.1304C1325.03 37.5922 1325.38 37.1821 1325.82 36.898C1326.26 36.6149 1326.76 36.4728 1327.31 36.4728C1327.69 36.4728 1328.01 36.5339 1328.27 36.6569C1328.54 36.7759 1328.76 36.927 1328.93 37.1141C1329.11 37.2961 1329.24 37.4822 1329.34 37.6733H1329.4V36.5809H1331.02V43.5463H1329.4V42.4609H1329.34C1329.23 42.673 1329.09 42.8671 1328.93 43.0381C1328.75 43.2252 1328.52 43.3792 1328.26 43.5023C1327.96 43.6283 1327.64 43.6883 1327.31 43.6803ZM1327.74 42.3279C1328.1 42.3279 1328.4 42.2338 1328.66 42.0478C1328.91 41.8577 1329.11 41.5926 1329.24 41.2545C1329.37 40.9114 1329.44 40.5152 1329.44 40.0671C1329.44 39.6139 1329.37 39.2198 1329.24 38.8867C1329.13 38.5746 1328.92 38.3025 1328.66 38.1044C1328.41 37.9183 1328.1 37.8253 1327.74 37.8253C1327.38 37.8253 1327.08 37.9183 1326.83 38.1054C1326.57 38.3065 1326.37 38.5766 1326.26 38.8857C1326.13 39.2198 1326.06 39.6139 1326.06 40.0661C1326.06 40.5162 1326.13 40.9094 1326.26 41.2475C1326.39 41.5866 1326.58 41.8507 1326.83 42.0418C1327.08 42.2318 1327.39 42.3279 1327.74 42.3279ZM1312.96 43.5463V34.085H1315.46L1317.28 38.9997C1317.34 39.1818 1317.41 39.4099 1317.49 39.686C1317.57 39.9611 1317.65 40.2572 1317.74 40.5753C1317.82 40.8884 1317.9 41.1925 1317.97 41.4896C1318.05 41.7817 1318.11 42.0378 1318.16 42.2578H1317.8C1318 41.3976 1318.22 40.5423 1318.47 39.692C1318.55 39.4119 1318.62 39.1818 1318.68 38.9997L1320.47 34.085H1322.98V43.5463H1321.31V38.7526C1321.31 38.2064 1321.32 37.6603 1321.33 37.1141L1321.36 36.1427C1321.36 35.8166 1321.37 35.5055 1321.38 35.2094H1321.52C1321.43 35.5355 1321.34 35.8696 1321.24 36.2128L1320.94 37.2091C1320.84 37.5272 1320.75 37.8193 1320.66 38.0854C1320.59 38.3095 1320.52 38.5316 1320.44 38.7526L1318.68 43.5463H1317.26L1315.47 38.7526L1315.25 38.0924C1315.15 37.8033 1315.06 37.5132 1314.97 37.2221L1314.67 36.2318C1314.57 35.8916 1314.47 35.5505 1314.37 35.2094H1314.55C1314.55 35.4925 1314.56 35.7976 1314.57 36.1237C1314.58 36.4448 1314.58 36.7689 1314.59 37.0951C1314.6 37.4172 1314.6 37.7213 1314.61 38.0094C1314.61 38.2975 1314.62 38.5446 1314.62 38.7526V43.5463H1312.96Z" fill="black"/>
</g>
</g>
</mask>
<g mask="url(#mask1_0_2245)">
<rect x="1312.96" y="34.0118" width="97.0337" height="10.0035" fill="black"/>
</g>
<mask id="mask2_0_2245" style="mask-type:alpha" maskUnits="userSpaceOnUse" x="1280" y="20" width="141" height="39">
<rect x="1280.44" y="20.0069" width="140.049" height="38.0132" fill="url(#paint0_linear_0_2245)"/>
</mask>
<g mask="url(#mask2_0_2245)">
<g opacity="0.06" filter="url(#filter1_i_0_2245)">
<rect x="1280.44" y="20.0069" width="140.049" height="38.0132" rx="11" fill="white" fill-opacity="0.01"/>
</g>
</g>
<g opacity="0.04" filter="url(#filter2_i_0_2245)">
<rect x="1280.44" y="20.0069" width="140.049" height="38.0132" rx="11" fill="white" fill-opacity="0.01"/>
</g>
<defs>
<filter id="filter0_ddd_0_2245" x="1259.94" y="9.5033" width="181.063" height="79.0274" filterUnits="userSpaceOnUse" color-interpolation-filters="sRGB">
<feFlood flood-opacity="0" result="BackgroundImageFix"/>
<feColorMatrix in="SourceAlpha" type="matrix" values="0 0 0 0 0 0 0 0 0 0 0 0 0 0 0 0 0 0 127 0" result="hardAlpha"/>
<feMorphology radius="4.5" operator="erode" in="SourceAlpha" result="effect1_dropShadow_0_2245"/>
<feOffset dy="10"/>
<feGaussianBlur stdDeviation="13"/>
<feComposite in2="hardAlpha" operator="out"/>
<feColorMatrix type="matrix" values="0 0 0 0 0 0 0 0 0 0 0 0 0 0 0 0 0 0 0.02 0"/>
<feBlend mode="normal" in2="BackgroundImageFix" result="effect1_dropShadow_0_2245"/>
<feColorMatrix in="SourceAlpha" type="matrix" values="0 0 0 0 0 0 0 0 0 0 0 0 0 0 0 0 0 0 127 0" result="hardAlpha"/>
<feMorphology radius="3" operator="erode" in="SourceAlpha" result="effect2_dropShadow_0_2245"/>
<feOffset dy="2.28853"/>
<feGaussianBlur stdDeviation="2.9751"/>
<feComposite in2="hardAlpha" operator="out"/>
<feColorMatrix type="matrix" values="0 0 0 0 0 0 0 0 0 0 0 0 0 0 0 0 0 0 0.14 0"/>
<feBlend mode="normal" in2="effect1_dropShadow_0_2245" result="effect2_dropShadow_0_2245"/>
<feColorMatrix in="SourceAlpha" type="matrix" values="0 0 0 0 0 0 0 0 0 0 0 0 0 0 0 0 0 0 127 0" result="hardAlpha"/>
<feMorphology radius="1.5" operator="erode" in="SourceAlpha" result="effect3_dropShadow_0_2245"/>
<feOffset dy="0.602187"/>
<feGaussianBlur stdDeviation="0.782845"/>
<feComposite in2="hardAlpha" operator="out"/>
<feColorMatrix type="matrix" values="0 0 0 0 0 0 0 0 0 0 0 0 0 0 0 0 0 0 0.17 0"/>
<feBlend mode="normal" in2="effect2_dropShadow_0_2245" result="effect3_dropShadow_0_2245"/>
<feBlend mode="normal" in="SourceGraphic" in2="effect3_dropShadow_0_2245" result="shape"/>
</filter>
<filter id="filter1_i_0_2245" x="1280.44" y="20.0069" width="140.049" height="38.0132" filterUnits="userSpaceOnUse" color-interpolation-filters="sRGB">
<feFlood flood-opacity="0" result="BackgroundImageFix"/>
<feBlend mode="normal" in="SourceGraphic" in2="BackgroundImageFix" result="shape"/>
<feColorMatrix in="SourceAlpha" type="matrix" values="0 0 0 0 0 0 0 0 0 0 0 0 0 0 0 0 0 0 127 0" result="hardAlpha"/>
<feMorphology radius="1" operator="erode" in="SourceAlpha" result="effect1_innerShadow_0_2245"/>
<feOffset/>
<feComposite in2="hardAlpha" operator="arithmetic" k2="-1" k3="1"/>
<feColorMatrix type="matrix" values="0 0 0 0 0 0 0 0 0 0 0 0 0 0 0 0 0 0 1 0"/>
<feBlend mode="normal" in2="shape" result="effect1_innerShadow_0_2245"/>
</filter>
<filter id="filter2_i_0_2245" x="1280.44" y="20.0069" width="140.049" height="38.0132" filterUnits="userSpaceOnUse" color-interpolation-filters="sRGB">
<feFlood flood-opacity="0" result="BackgroundImageFix"/>
<feBlend mode="normal" in="SourceGraphic" in2="BackgroundImageFix" result="shape"/>
<feColorMatrix in="SourceAlpha" type="matrix" values="0 0 0 0 0 0 0 0 0 0 0 0 0 0 0 0 0 0 127 0" result="hardAlpha"/>
<feMorphology radius="1" operator="erode" in="SourceAlpha" result="effect1_innerShadow_0_2245"/>
<feOffset/>
<feComposite in2="hardAlpha" operator="arithmetic" k2="-1" k3="1"/>
<feColorMatrix type="matrix" values="0 0 0 0 0 0 0 0 0 0 0 0 0 0 0 0 0 0 1 0"/>
<feBlend mode="normal" in2="shape" result="effect1_innerShadow_0_2245"/>
</filter>
<linearGradient id="paint0_linear_0_2245" x1="1350.47" y1="20.0069" x2="1350.47" y2="58.0201" gradientUnits="userSpaceOnUse">
<stop offset="0.65" stop-opacity="0"/>
<stop offset="1"/>
</linearGradient>
<clipPath id="clip0_0_2245">
<rect width="12" height="20" fill="white" transform="translate(1290.95 29.0101) scale(1.00035)"/>
</clipPath>
<clipPath id="clip1_0_2245">
<rect width="12" height="20" fill="white" transform="translate(1290.95 29.0101) scale(1.00035)"/>
</clipPath>
<clipPath id="clip2_0_2245">
<rect width="97" height="10" fill="white" transform="translate(1312.96 34.0118) scale(1.00035)"/>
</clipPath>
<clipPath id="clip3_0_2245">
<rect width="97" height="10" fill="white" transform="translate(1312.96 34.0118) scale(1.00035)"/>
</clipPath>
</defs>
</svg>
