<svg width="166" height="40" viewBox="0 0 166 40" fill="none" xmlns="http://www.w3.org/2000/svg">
<path d="M154.746 30.4981C153.042 30.4981 151.548 30.1364 150.265 29.4129C148.995 28.6807 147.962 27.5991 147.289 26.2968C146.589 24.9669 146.239 23.403 146.239 21.6052C146.239 19.8323 146.589 18.2805 147.289 16.9497C147.955 15.6333 148.988 14.5386 150.265 13.7987C151.548 13.0289 153.042 12.6439 154.746 12.6439C156.472 12.6439 157.966 13.0289 159.227 13.7987C160.499 14.5597 161.531 15.6645 162.203 16.9858C162.903 18.3149 163.253 19.843 163.253 21.5704C163.253 21.8284 163.241 22.0852 163.218 22.3407C163.218 22.5747 163.194 22.7729 163.147 22.9355H149.985V19.5058H159.681L158.982 21.151C158.982 19.7033 158.632 18.5248 157.932 17.6155C157.255 16.7046 156.193 16.2491 154.746 16.2491C153.485 16.2491 152.469 16.6461 151.699 17.44C150.929 18.2108 150.545 19.2491 150.545 20.5549V22.4104C150.545 23.7884 150.929 24.874 151.699 25.6671C152.493 26.437 153.566 26.822 154.92 26.822C156.111 26.822 157.044 26.5768 157.721 26.0865C158.398 25.5962 158.982 24.9897 159.472 24.2671L162.657 26.0865C161.888 27.5101 160.838 28.6069 159.507 29.3768C158.2 30.1252 156.613 30.499 154.746 30.4981ZM138.959 13.0284L140.114 17.7549V30.1471H135.528V13.0284H138.959ZM139.169 20.0994L138.329 19.7149V16.2142L138.644 15.8297C138.9 15.4082 139.285 14.9532 139.799 14.4646C140.336 13.9742 140.942 13.554 141.619 13.2039C142.284 12.8378 143.031 12.6452 143.79 12.6439C144.163 12.6439 144.502 12.6671 144.805 12.7136C145.109 12.76 145.342 12.8418 145.505 12.9587V17.1252H144.385C142.868 17.1252 141.701 17.3704 140.884 17.8607C140.067 18.3269 139.495 19.0736 139.169 20.1007M121.849 30.5678C120.566 30.5678 119.539 30.3691 118.768 29.9716C117.998 29.576 117.403 29.0512 116.983 28.3975C116.573 27.6843 116.3 26.9004 116.178 26.0865C116.036 25.1947 115.965 24.2928 115.968 23.3897V13.0284H120.554V23.4258C120.554 24.4753 120.776 25.1751 121.219 25.5252C121.685 25.8753 122.233 26.0504 122.865 26.0504C123.462 26.0474 124.054 25.9409 124.614 25.7355C125.207 25.5198 125.763 25.2129 126.261 24.8258C126.797 24.4061 127.24 23.9273 127.59 23.3897L128.152 25.8065H127.031V13.0284H131.618V30.1471H128.186L127.241 26.8904L128.712 26.9265C128.116 27.6151 127.446 28.2372 126.716 28.782C126.002 29.3352 125.212 29.7828 124.37 30.111C123.564 30.4117 122.711 30.5659 121.85 30.5665M109.92 30.462C108.17 30.462 106.781 30.0069 105.754 29.0968C104.75 28.1635 104.248 26.6813 104.249 24.6504V13.2387L104.178 13.0297L105.124 9.00391H108.835V23.9162C108.835 24.6637 109.01 25.2125 109.36 25.5626C109.733 25.8895 110.199 26.0529 110.76 26.0529C111.134 26.0529 111.473 26.0293 111.776 25.982C112.079 25.9132 112.348 25.843 112.581 25.7716V30.0426C112.207 30.1828 111.81 30.2878 111.39 30.3575C110.903 30.4328 110.411 30.4681 109.919 30.4633M101.587 17.2646V13.0284H112.579V17.2646H101.587ZM93.7536 12.6439C94.92 12.6439 95.8534 12.8422 96.5536 13.2387C97.2762 13.6353 97.8129 14.1721 98.1639 14.8491C98.5381 15.5269 98.7833 16.2968 98.8994 17.1587C99.0155 17.9992 99.0736 18.8749 99.0736 19.7858V30.1471H94.4878V19.7497C94.4878 18.7002 94.2779 18.0005 93.8581 17.6504C93.4624 17.3003 92.9489 17.1252 92.3175 17.1252C91.7342 17.1252 91.139 17.2413 90.5317 17.4736C89.9252 17.6852 89.3536 18.0005 88.8168 18.4194C88.3033 18.8159 87.8603 19.2714 87.4878 19.7858L86.8917 17.4052H88.0465V30.1471H83.4607V13.0284H86.8917L87.8362 16.3187L86.3652 16.2491C86.9748 15.5474 87.6691 14.9241 88.4323 14.3936C89.2124 13.8633 90.0599 13.4398 90.9523 13.1342C91.8489 12.805 92.7985 12.6389 93.7536 12.6439ZM72.1497 30.4981C70.4465 30.4981 68.9527 30.1364 67.6684 29.4129C66.3986 28.6807 65.3658 27.5991 64.6929 26.2968C63.9927 24.9669 63.6426 23.403 63.6426 21.6052C63.6426 19.8323 63.9927 18.2805 64.6929 16.9497C65.3585 15.6333 66.3923 14.5386 67.6684 13.7987C68.9519 13.0289 70.4456 12.6439 72.1497 12.6439C73.8762 12.6439 75.3699 13.0289 76.631 13.7987C77.9045 14.5581 78.9363 15.6633 79.6065 16.9858C80.3067 18.3149 80.6568 19.843 80.6568 21.5704C80.6568 21.8284 80.6448 22.0852 80.6207 22.3407C80.6207 22.5747 80.5975 22.7729 80.551 22.9355H67.3884V19.5058H77.0852L76.3858 21.151C76.3858 19.7033 76.0357 18.5248 75.3355 17.6155C74.6585 16.7046 73.5962 16.2491 72.1484 16.2491C70.8891 16.2491 69.874 16.6461 69.1033 17.44C68.3334 18.2108 67.9484 19.2491 67.9484 20.5549V22.4104C67.9484 23.7884 68.3334 24.874 69.1033 25.6671C69.8972 26.437 70.9708 26.822 72.3239 26.822C73.5144 26.822 74.4478 26.5768 75.1239 26.0865C75.8018 25.5962 76.3854 24.9897 76.8749 24.2671L80.062 26.0865C79.2904 27.5101 78.24 28.6069 76.911 29.3768C75.6035 30.1252 74.0164 30.499 72.1497 30.4981ZM62.9407 13.0284L56.6749 30.1471H52.2633L45.6826 13.0284H50.5123L54.9936 26.1213H53.9097L58.2142 13.0284H62.9407Z" fill="white"/>
<path fill-rule="evenodd" clip-rule="evenodd" d="M12.7381 2.71484C12.4517 2.71484 12.177 2.82863 11.9744 3.03117C11.7719 3.23371 11.6581 3.50841 11.6581 3.79484V14.0568C10.1687 14.0568 8.69379 14.3501 7.31773 14.9201C5.94166 15.4901 4.69133 16.3256 3.63814 17.3788C2.58494 18.432 1.7495 19.6823 1.17952 21.0583C0.60953 22.4344 0.316162 23.9093 0.316162 25.3987C0.316162 26.8882 0.60953 28.363 1.17952 29.7391C1.7495 31.1152 2.58494 32.3655 3.63814 33.4187C4.69133 34.4719 5.94166 35.3073 7.31773 35.8773C8.69379 36.4473 10.1687 36.7407 11.6581 36.7407H21.92C22.2065 36.7407 22.4812 36.6269 22.6837 36.4243C22.8862 36.2218 23 35.9471 23 35.6606V25.3987C26.0081 25.3987 28.893 24.2038 31.02 22.0767C33.147 19.9497 34.342 17.0648 34.342 14.0568C34.342 11.0487 33.147 8.16384 31.02 6.03682C28.893 3.90979 26.0081 2.71484 23 2.71484H12.7381ZM23 25.3987H12.7381C12.4517 25.3987 12.177 25.2849 11.9744 25.0824C11.7719 24.8799 11.6581 24.6051 11.6581 24.3187V14.0568H21.92C22.5162 14.0568 23 14.5406 23 15.1368V25.3987Z" fill="white"/>
<path d="M12.6168 2.71484C12.3627 2.71484 12.1191 2.81567 11.9393 2.99519C11.7596 3.1747 11.6584 3.41822 11.6581 3.67226V14.0568H22.0413C22.5703 14.0568 23 14.4852 23 15.0155V25.3987C26.0081 25.3987 28.8929 24.2038 31.02 22.0767C33.147 19.9497 34.342 17.0648 34.342 14.0568C34.342 11.0487 33.147 8.16384 31.02 6.03682C28.8929 3.90979 26.0081 2.71484 23 2.71484H12.6168Z" fill="white"/>
</svg>
