<svg width="20" height="20" viewBox="0 0 20 20" fill="none" xmlns="http://www.w3.org/2000/svg">
<g opacity="0.5">
<g clip-path="url(#clip0_0_389)">
<mask id="mask0_0_389" style="mask-type:luminance" maskUnits="userSpaceOnUse" x="0" y="0" width="20" height="20">
<path d="M19.3877 0.171387H0V19.829H19.3877V0.171387Z" fill="white"/>
</mask>
<g mask="url(#mask0_0_389)">
<path d="M18.9577 9.51881C19.1708 9.9941 19.306 10.5021 19.3612 11.0204C19.4146 11.5387 19.3879 12.0631 19.2772 12.5731C19.1688 13.0832 18.9803 13.5728 18.718 14.0234C18.546 14.3246 18.3431 14.6073 18.1096 14.8674C17.8782 15.1255 17.62 15.3591 17.3394 15.5639C17.0567 15.7688 16.7556 15.9409 16.436 16.0822C16.1185 16.2215 15.7867 16.328 15.4466 16.3977C15.2868 16.8934 15.0491 17.3626 14.7419 17.7846C14.4367 18.2065 14.0659 18.5773 13.6439 18.8826C13.2219 19.1898 12.7549 19.4274 12.2591 19.5872C11.7633 19.7491 11.245 19.829 10.7228 19.829C10.3765 19.831 10.0283 19.7941 9.68819 19.7245C9.35022 19.6528 9.01836 19.5442 8.70085 19.4029C8.38332 19.2615 8.0822 19.0853 7.80155 18.8805C7.52295 18.6756 7.26484 18.4401 7.03541 18.1799C6.52329 18.2905 5.99887 18.3172 5.48059 18.2639C4.96231 18.2086 4.45429 18.0733 3.97699 17.8603C3.50173 17.6493 3.06131 17.3626 2.67413 17.0123C2.28697 16.6619 1.95716 16.2523 1.697 15.8016C1.52288 15.5005 1.37948 15.183 1.2709 14.8531C1.16234 14.5233 1.09064 14.1832 1.05377 13.8371C1.0169 13.493 1.01894 13.1447 1.05582 12.7985C1.09269 12.4543 1.16849 12.1143 1.27706 11.7845C0.928809 11.3972 0.642018 10.9569 0.428973 10.4816C0.217977 10.0043 0.0807269 9.49832 0.0274657 8.98005C-0.0278441 8.46178 0.000835075 7.93736 0.109406 7.42728C0.217977 6.91721 0.406439 6.42762 0.668649 5.97694C0.840723 5.67581 1.04352 5.39106 1.27501 5.13296C1.50649 4.87485 1.76665 4.64131 2.0473 4.43646C2.32794 4.23162 2.63111 4.05749 2.94864 3.91819C3.2682 3.77685 3.60006 3.67237 3.94011 3.60272C4.0999 3.10493 4.33752 2.63787 4.64275 2.21588C4.95003 1.79389 5.32081 1.42311 5.7428 1.11584C6.16479 0.810606 6.63185 0.57298 7.12759 0.411147C7.62333 0.251364 8.1416 0.169424 8.66397 0.171472C9.01017 0.169424 9.35842 0.204248 9.69848 0.275946C10.0385 0.347643 10.3704 0.454166 10.6879 0.595513C11.0054 0.738909 11.3066 0.913032 11.5871 1.11788C11.8678 1.32478 12.1259 1.55831 12.3553 1.81847C12.8654 1.7099 13.3899 1.68327 13.9082 1.73653C14.4264 1.78979 14.9324 1.92705 15.4097 2.13804C15.885 2.35108 16.3254 2.63583 16.7126 2.98612C17.0997 3.33437 17.4295 3.74202 17.6897 4.19474C17.8638 4.49383 18.0072 4.81134 18.1158 5.1432C18.2244 5.47301 18.2981 5.81306 18.333 6.15925C18.3698 6.50545 18.3698 6.8537 18.3309 7.1999C18.294 7.5461 18.2182 7.88615 18.1096 8.21596C18.4599 8.60313 18.7447 9.04151 18.9577 9.51881ZM12.1321 18.2639C12.5787 18.0795 12.9843 17.8071 13.3264 17.465C13.6685 17.1229 13.941 16.7172 14.1253 16.2687C14.3096 15.8221 14.4059 15.3427 14.4059 14.8592V10.2911C14.4046 10.287 14.4032 10.2822 14.4018 10.2768C14.4005 10.2727 14.3984 10.2686 14.3957 10.2645C14.393 10.2604 14.3895 10.257 14.3854 10.2542C14.3813 10.2501 14.3772 10.2474 14.3731 10.246L12.72 9.29143V14.8101C12.72 14.8654 12.7118 14.9228 12.6975 14.976C12.6831 15.0313 12.6627 15.0826 12.634 15.1317C12.6053 15.1809 12.5725 15.2259 12.5315 15.2649C12.4917 15.3046 12.447 15.339 12.3984 15.3673L8.48371 17.6268C8.45092 17.6472 8.39562 17.676 8.36693 17.6924C8.52877 17.8296 8.70494 17.9505 8.88931 18.057C9.07572 18.1635 9.26829 18.2536 9.46904 18.3274C9.66981 18.3991 9.87667 18.4544 10.0856 18.4912C10.2967 18.5281 10.5097 18.5466 10.7228 18.5466C11.2062 18.5466 11.6855 18.4503 12.1321 18.2639ZM2.80934 15.1625C3.05311 15.5824 3.37472 15.9471 3.7578 16.242C4.14291 16.537 4.57925 16.7521 5.04631 16.8771C5.51337 17.002 6.00091 17.0348 6.48027 16.9712C6.95961 16.9078 7.42052 16.7521 7.84048 16.5104L11.7982 14.2263L11.8085 14.216C11.8111 14.2133 11.8132 14.2092 11.8146 14.2037C11.8173 14.1996 11.8193 14.1955 11.8208 14.1914V12.2658L7.0436 15.0293C6.99444 15.058 6.94323 15.0785 6.88996 15.0949C6.83466 15.1091 6.77934 15.1153 6.72199 15.1153C6.66668 15.1153 6.61137 15.1091 6.55606 15.0949C6.5028 15.0785 6.44953 15.058 6.40037 15.0293L2.48568 12.7677C2.45085 12.7472 2.39964 12.7165 2.37096 12.6981C2.33409 12.9091 2.31565 13.1221 2.31565 13.3351C2.31565 13.5482 2.33613 13.7612 2.37301 13.9723C2.40988 14.1812 2.46724 14.3881 2.53893 14.5889C2.61269 14.7896 2.70282 14.9822 2.80934 15.1666V15.1625ZM1.78099 6.62017C1.53927 7.04011 1.38358 7.50308 1.32008 7.98243C1.25657 8.46178 1.28934 8.94727 1.4143 9.41639C1.53927 9.88344 1.75435 10.3198 2.04934 10.7049C2.34432 11.088 2.71101 11.4096 3.12891 11.6513L7.08457 13.9374C7.08867 13.9388 7.09345 13.9402 7.09891 13.9415H7.11325C7.11871 13.9415 7.1235 13.9402 7.12759 13.9374C7.13169 13.9361 7.13578 13.934 7.13989 13.9313L8.79917 12.9726L4.02206 10.2153C3.97494 10.1866 3.92987 10.1518 3.88891 10.1129C3.84921 10.0731 3.81478 10.0283 3.78648 9.97972C3.75985 9.93058 3.73731 9.87934 3.72297 9.82401C3.70863 9.77077 3.70044 9.71544 3.70249 9.6581V5.00595C3.50173 5.07969 3.30712 5.16983 3.12276 5.27635C2.93839 5.38492 2.76427 5.50784 2.60039 5.64508C2.43856 5.78233 2.28697 5.93392 2.14971 6.09781C2.01247 6.25964 1.89161 6.43581 1.78509 6.62017H1.78099ZM15.3688 9.78305C15.4179 9.81172 15.463 9.84448 15.5039 9.88553C15.5429 9.92439 15.5777 9.96943 15.6064 10.0187C15.633 10.0678 15.6555 10.1211 15.6699 10.1743C15.6822 10.2296 15.6904 10.285 15.6883 10.3423V14.9945C16.3459 14.7528 16.9194 14.3287 17.3435 13.7715C17.7696 13.2143 18.0256 12.5486 18.085 11.8521C18.1445 11.1555 18.0051 10.455 17.6815 9.83429C17.3578 9.21359 16.8642 8.69736 16.2578 8.34911L12.3021 6.06298C12.298 6.06162 12.2932 6.06025 12.2878 6.05888H12.2734C12.2693 6.06025 12.2646 6.06162 12.2591 6.06298C12.255 6.06434 12.251 6.06639 12.2468 6.06912L10.5957 7.02373L15.3729 9.78305H15.3688ZM17.0178 7.30438H17.0157V7.30643L17.0178 7.30438ZM17.0157 7.30232C17.1346 6.61403 17.0547 5.90524 16.7843 5.25996C16.5159 4.61468 16.0672 4.05954 15.4937 3.65804C14.9201 3.25857 14.2441 3.02914 13.5455 2.99841C12.845 2.96973 12.1526 3.13976 11.5462 3.48801L7.59055 5.77209C7.58646 5.77483 7.58304 5.77824 7.58031 5.78233L7.57211 5.79463C7.57075 5.79872 7.56938 5.8035 7.56802 5.80897C7.56666 5.81306 7.56597 5.81785 7.56597 5.8233V7.73251L12.343 4.97317C12.3923 4.94449 12.4455 4.92401 12.4988 4.90762C12.5541 4.89328 12.6094 4.88713 12.6647 4.88713C12.7221 4.88713 12.7773 4.89328 12.8327 4.90762C12.8859 4.92401 12.9371 4.94449 12.9863 4.97317L16.901 7.23472C16.9358 7.25521 16.987 7.28389 17.0157 7.30232ZM6.66463 5.18826C6.66463 5.13296 6.67282 5.07764 6.68716 5.02234C6.70151 4.96907 6.72199 4.91582 6.75067 4.86665C6.77934 4.81953 6.81212 4.77446 6.8531 4.73349C6.89201 4.69458 6.93708 4.65975 6.98625 4.63312L10.901 2.37362C10.9378 2.35108 10.989 2.32241 11.0177 2.30806C10.481 1.85945 9.82543 1.57265 9.13103 1.48457C8.43659 1.39443 7.7319 1.50505 7.09891 1.80208C6.46388 2.09912 5.92716 2.57232 5.55229 3.16229C5.17741 3.75431 4.97871 4.43851 4.97871 5.1391V9.70724C4.98008 9.71277 4.98144 9.71753 4.9828 9.72163C4.98417 9.72572 4.98622 9.72982 4.98895 9.73391C4.99168 9.73801 4.9951 9.7421 4.99919 9.7462C5.00192 9.74896 5.00602 9.75163 5.01149 9.75439L6.66463 10.709V5.18826ZM7.56188 11.2252L9.69029 12.4543L11.8187 11.2252V8.76905L9.69229 7.53995L7.56392 8.76905L7.56188 11.2252Z" fill="white"/>
</g>
</g>
</g>
<defs>
<clipPath id="clip0_0_389">
<rect width="20" height="20" fill="white"/>
</clipPath>
</defs>
</svg>
