<svg width="206" height="40" viewBox="0 0 206 40" fill="none" xmlns="http://www.w3.org/2000/svg">
<g clip-path="url(#clip0_0_1353)">
<g opacity="0.8">
<path d="M198.545 12.9977H203.397L196.999 30.5784C195.17 35.6405 192.181 37.8556 187.716 37.6101V33.3908C190.212 33.4267 191.477 32.3701 192.321 30.0156L185.113 12.9977H190.072L194.643 24.8115L198.545 12.9977ZM176.942 12.5039C180.669 12.5039 183.588 15.1067 183.588 19.7825V30.577H179.051V20.3453C179.051 17.9549 177.61 16.7232 175.571 16.7232C173.356 16.7232 171.703 18.0253 171.703 21.0832V30.577H167.167V12.9963H171.703V14.966C172.757 13.3839 174.586 12.5039 176.942 12.5039ZM158.519 12.9963H163.054V30.577H158.519V28.5025C157.252 30.0846 155.355 31.0694 152.788 31.0694C148.11 31.0694 144.243 27.0267 144.243 21.7867C144.243 16.548 148.11 12.5039 152.788 12.5039C155.355 12.5039 157.252 13.4887 158.519 15.0708V12.9963ZM153.632 26.7453C156.444 26.7453 158.519 24.7398 158.519 21.7867C158.519 18.8336 156.444 16.8294 153.632 16.8294C150.854 16.8294 148.779 18.8336 148.779 21.7867C148.779 24.7398 150.854 26.7453 153.632 26.7453ZM133.379 12.5039C138.091 12.5039 141.959 16.548 141.959 21.7867C141.959 27.0253 138.091 31.0694 133.379 31.0694C130.814 31.0694 128.949 30.1205 127.683 28.5039V37.6087H123.148V12.9963H127.683V15.0708C128.949 13.4543 130.814 12.5053 133.379 12.5053M132.535 26.7467C135.349 26.7467 137.423 24.7411 137.423 21.788C137.423 18.8349 135.349 16.8308 132.535 16.8308C129.759 16.8308 127.684 18.8349 127.684 21.788C127.684 24.7411 129.759 26.7467 132.535 26.7467ZM112.65 12.5039C116.658 12.5039 119.295 15.3522 119.295 19.748V30.577H114.76V20.0639C114.76 17.9894 113.705 16.7232 111.806 16.7232C109.801 16.7232 108.537 18.0611 108.537 20.697V30.577H104V20.0639C104 17.9894 102.945 16.7232 101.047 16.7232C99.1131 16.7232 97.7421 18.0611 97.7421 20.697V30.577H93.2055V12.9963H97.7421V14.8598C98.7255 13.3839 100.379 12.5039 102.629 12.5039C104.808 12.5039 106.426 13.4184 107.411 15.0363C108.501 13.4543 110.259 12.5039 112.65 12.5039ZM80.6979 31.0694C75.5283 31.0694 71.4152 27.0267 71.4152 21.7867C71.4152 16.548 75.5283 12.5039 80.6979 12.5039C85.8662 12.5039 90.0152 16.548 90.0152 21.7867C90.0152 27.0253 85.8662 31.0694 80.6979 31.0694ZM80.6979 26.6391C83.4055 26.6391 85.48 24.6349 85.48 21.7867C85.48 18.9384 83.4055 16.9343 80.6979 16.9343C78.0248 16.9343 75.9504 18.9384 75.9504 21.7867C75.9504 24.6349 78.0248 26.6391 80.6979 26.6391ZM62.2593 31.0694C56.9145 31.0694 52.9766 27.0267 52.9766 21.7867C52.9766 16.548 56.9145 12.5039 62.2593 12.5039C65.7048 12.5039 68.6938 14.3329 70.1352 17.0405L66.2317 19.326C65.5283 17.8846 64.0166 16.9701 62.2235 16.9701C59.5159 16.9701 57.5117 18.9743 57.5117 21.7867C57.5117 24.5646 59.5159 26.5687 62.2235 26.5687C64.0524 26.5687 65.5641 25.6901 66.2676 24.2487L70.2055 26.4984C68.6938 29.2405 65.7048 31.0694 62.2593 31.0694Z" fill="white"/>
<path fill-rule="evenodd" clip-rule="evenodd" d="M14.2669 2.60742C12.7496 2.60742 11.5207 3.83777 11.5207 5.35501V13.9343H2.78274C1.2655 13.9343 0.0351562 15.1647 0.0351562 16.6819V36.9343C0.0351562 38.4516 1.2655 39.6819 2.78274 39.6819H22.7938C24.311 39.6819 25.5414 38.4516 25.5414 36.9343V28.355H34.2793C35.7965 28.355 37.0255 27.1247 37.0255 25.6088V5.35501C37.0257 4.99432 36.9548 4.63713 36.8168 4.30387C36.6789 3.9706 36.4766 3.66779 36.2216 3.41274C35.9665 3.1577 35.6637 2.95542 35.3304 2.81747C34.9972 2.67953 34.64 2.60862 34.2793 2.6088L14.2669 2.60742ZM25.5414 28.355V16.6819C25.5414 15.1647 24.311 13.9343 22.7938 13.9343H11.5207V25.6088C11.5207 27.126 12.7496 28.355 14.2669 28.355H25.5414Z" fill="white"/>
</g>
</g>
<defs>
<clipPath id="clip0_0_1353">
<rect width="206" height="40" fill="white"/>
</clipPath>
</defs>
</svg>
