<svg width="20" height="20" viewBox="0 0 20 20" fill="none" xmlns="http://www.w3.org/2000/svg">
<g opacity="0.5">
<g clip-path="url(#clip0_0_52)">
<mask id="mask0_0_52" style="mask-type:luminance" maskUnits="userSpaceOnUse" x="0" y="0" width="20" height="20">
<path d="M19.3877 0.171204H0V19.8288H19.3877V0.171204Z" fill="white"/>
</mask>
<g mask="url(#mask0_0_52)">
<path d="M18.9577 9.51862C19.1708 9.99392 19.306 10.5019 19.3612 11.0202C19.4146 11.5385 19.3879 12.0629 19.2772 12.573C19.1688 13.0831 18.9803 13.5726 18.718 14.0233C18.546 14.3244 18.3431 14.6072 18.1096 14.8673C17.8782 15.1253 17.62 15.359 17.3394 15.5637C17.0567 15.7686 16.7556 15.9407 16.436 16.082C16.1185 16.2213 15.7867 16.3278 15.4466 16.3975C15.2868 16.8933 15.0491 17.3624 14.7419 17.7844C14.4367 18.2063 14.0659 18.5772 13.6439 18.8824C13.2219 19.1896 12.7549 19.4273 12.2591 19.5871C11.7633 19.7489 11.245 19.8288 10.7228 19.8288C10.3765 19.8308 10.0283 19.7939 9.68819 19.7243C9.35022 19.6526 9.01836 19.544 8.70085 19.4027C8.38332 19.2613 8.0822 19.0852 7.80155 18.8803C7.52295 18.6754 7.26484 18.4399 7.03541 18.1797C6.52329 18.2903 5.99887 18.317 5.48059 18.2637C4.96231 18.2084 4.45429 18.0732 3.97699 17.8601C3.50173 17.6492 3.06131 17.3624 2.67413 17.0121C2.28697 16.6617 1.95716 16.2521 1.697 15.8014C1.52288 15.5003 1.37948 15.1828 1.2709 14.853C1.16234 14.5232 1.09064 14.1831 1.05377 13.8369C1.0169 13.4928 1.01894 13.1445 1.05582 12.7983C1.09269 12.4541 1.16849 12.1141 1.27706 11.7843C0.928809 11.3971 0.642018 10.9567 0.428973 10.4814C0.217977 10.0041 0.0807269 9.49814 0.0274657 8.97987C-0.0278441 8.4616 0.000835075 7.93718 0.109406 7.4271C0.217977 6.91702 0.406439 6.42743 0.668649 5.97676C0.840723 5.67562 1.04352 5.39088 1.27501 5.13278C1.50649 4.87466 1.76665 4.64113 2.0473 4.43628C2.32794 4.23143 2.63111 4.05731 2.94864 3.91801C3.2682 3.77666 3.60006 3.67219 3.94011 3.60254C4.0999 3.10475 4.33752 2.63769 4.64275 2.2157C4.95003 1.79371 5.32081 1.42293 5.7428 1.11565C6.16479 0.810423 6.63185 0.572797 7.12759 0.410964C7.62333 0.251181 8.1416 0.16924 8.66397 0.171289C9.01017 0.16924 9.35842 0.204065 9.69848 0.275763C10.0385 0.34746 10.3704 0.453983 10.6879 0.59533C11.0054 0.738726 11.3066 0.912849 11.5871 1.1177C11.8678 1.3246 12.1259 1.55813 12.3553 1.81829C12.8654 1.70972 13.3899 1.68309 13.9082 1.73635C14.4264 1.78961 14.9324 1.92686 15.4097 2.13785C15.885 2.3509 16.3254 2.63564 16.7126 2.98594C17.0997 3.33419 17.4295 3.74183 17.6897 4.19456C17.8638 4.49364 18.0072 4.81116 18.1158 5.14301C18.2244 5.47282 18.2981 5.81288 18.333 6.15907C18.3698 6.50527 18.3698 6.85352 18.3309 7.19972C18.294 7.54592 18.2182 7.88597 18.1096 8.21578C18.4599 8.60295 18.7447 9.04133 18.9577 9.51862ZM12.1321 18.2637C12.5787 18.0793 12.9843 17.8069 13.3264 17.4648C13.6685 17.1227 13.941 16.7171 14.1253 16.2685C14.3096 15.8219 14.4059 15.3425 14.4059 14.8591V10.2909C14.4046 10.2868 14.4032 10.282 14.4018 10.2766C14.4005 10.2725 14.3984 10.2684 14.3957 10.2643C14.393 10.2602 14.3895 10.2568 14.3854 10.254C14.3813 10.2499 14.3772 10.2473 14.3731 10.2458L12.72 9.29124V14.8099C12.72 14.8653 12.7118 14.9226 12.6975 14.9758C12.6831 15.0312 12.6627 15.0824 12.634 15.1315C12.6053 15.1807 12.5725 15.2257 12.5315 15.2647C12.4917 15.3044 12.447 15.3388 12.3984 15.3672L8.48371 17.6266C8.45092 17.6471 8.39562 17.6758 8.36693 17.6922C8.52877 17.8294 8.70494 17.9503 8.88931 18.0568C9.07572 18.1633 9.26829 18.2534 9.46904 18.3273C9.66981 18.3989 9.87667 18.4542 10.0856 18.4911C10.2967 18.5279 10.5097 18.5464 10.7228 18.5464C11.2062 18.5464 11.6855 18.4501 12.1321 18.2637ZM2.80934 15.1623C3.05311 15.5822 3.37472 15.9469 3.7578 16.2418C4.14291 16.5368 4.57925 16.7519 5.04631 16.8769C5.51337 17.0018 6.00091 17.0346 6.48027 16.9711C6.95961 16.9076 7.42052 16.7519 7.84048 16.5102L11.7982 14.2261L11.8085 14.2158C11.8111 14.2132 11.8132 14.2091 11.8146 14.2035C11.8173 14.1994 11.8193 14.1953 11.8208 14.1913V12.2656L7.0436 15.0292C6.99444 15.0578 6.94323 15.0783 6.88996 15.0947C6.83466 15.109 6.77934 15.1152 6.72199 15.1152C6.66668 15.1152 6.61137 15.109 6.55606 15.0947C6.5028 15.0783 6.44953 15.0578 6.40037 15.0292L2.48568 12.7675C2.45085 12.7471 2.39964 12.7163 2.37096 12.6979C2.33409 12.9089 2.31565 13.1219 2.31565 13.335C2.31565 13.548 2.33613 13.7611 2.37301 13.9721C2.40988 14.1811 2.46724 14.3879 2.53893 14.5887C2.61269 14.7894 2.70282 14.982 2.80934 15.1664V15.1623ZM1.78099 6.61999C1.53927 7.03993 1.38358 7.5029 1.32008 7.98224C1.25657 8.46159 1.28934 8.94709 1.4143 9.4162C1.53927 9.88325 1.75435 10.3196 2.04934 10.7047C2.34432 11.0878 2.71101 11.4094 3.12891 11.6512L7.08457 13.9373C7.08867 13.9386 7.09345 13.94 7.09891 13.9413H7.11325C7.11871 13.9413 7.1235 13.94 7.12759 13.9373C7.13169 13.9359 7.13578 13.9338 7.13989 13.9312L8.79917 12.9724L4.02206 10.2152C3.97494 10.1864 3.92987 10.1516 3.88891 10.1127C3.84921 10.0729 3.81478 10.0281 3.78648 9.97954C3.75985 9.9304 3.73731 9.87916 3.72297 9.82382C3.70863 9.77059 3.70044 9.71525 3.70249 9.65792V5.00577C3.50173 5.07951 3.30712 5.16964 3.12276 5.27617C2.93839 5.38474 2.76427 5.50765 2.60039 5.6449C2.43856 5.78215 2.28697 5.93374 2.14971 6.09762C2.01247 6.25945 1.89161 6.43562 1.78509 6.61999H1.78099ZM15.3688 9.78287C15.4179 9.81154 15.463 9.8443 15.5039 9.88535C15.5429 9.9242 15.5777 9.96925 15.6064 10.0185C15.633 10.0676 15.6555 10.1209 15.6699 10.1741C15.6822 10.2294 15.6904 10.2848 15.6883 10.3421V14.9943C16.3459 14.7526 16.9194 14.3285 17.3435 13.7713C17.7696 13.2141 18.0256 12.5484 18.085 11.8519C18.1445 11.1553 18.0051 10.4548 17.6815 9.83411C17.3578 9.2134 16.8642 8.69718 16.2578 8.34893L12.3021 6.0628C12.298 6.06143 12.2932 6.06006 12.2878 6.0587H12.2734C12.2693 6.06006 12.2646 6.06143 12.2591 6.0628C12.255 6.06416 12.251 6.0662 12.2468 6.06894L10.5957 7.02355L15.3729 9.78287H15.3688ZM17.0178 7.3042H17.0157V7.30624L17.0178 7.3042ZM17.0157 7.30214C17.1346 6.61384 17.0547 5.90506 16.7843 5.25978C16.5159 4.6145 16.0672 4.05936 15.4937 3.65785C14.9201 3.25839 14.2441 3.02896 13.5455 2.99822C12.845 2.96955 12.1526 3.13958 11.5462 3.48782L7.59055 5.77191C7.58646 5.77464 7.58304 5.77805 7.58031 5.78215L7.57211 5.79444C7.57075 5.79854 7.56938 5.80332 7.56802 5.80879C7.56666 5.81288 7.56597 5.81766 7.56597 5.82312V7.73233L12.343 4.97299C12.3923 4.94431 12.4455 4.92382 12.4988 4.90743C12.5541 4.8931 12.6094 4.88695 12.6647 4.88695C12.7221 4.88695 12.7773 4.8931 12.8327 4.90743C12.8859 4.92382 12.9371 4.94431 12.9863 4.97299L16.901 7.23454C16.9358 7.25502 16.987 7.28371 17.0157 7.30214ZM6.66463 5.18808C6.66463 5.13278 6.67282 5.07746 6.68716 5.02216C6.70151 4.96889 6.72199 4.91563 6.75067 4.86647C6.77934 4.81935 6.81212 4.77428 6.8531 4.73331C6.89201 4.6944 6.93708 4.65957 6.98625 4.63294L10.901 2.37343C10.9378 2.3509 10.989 2.32222 11.0177 2.30788C10.481 1.85926 9.82543 1.57247 9.13103 1.48439C8.43659 1.39424 7.7319 1.50487 7.09891 1.8019C6.46388 2.09894 5.92716 2.57214 5.55229 3.16211C5.17741 3.75413 4.97871 4.43833 4.97871 5.13892V9.70706C4.98008 9.71259 4.98144 9.71735 4.9828 9.72144C4.98417 9.72554 4.98622 9.72963 4.98895 9.73373C4.99168 9.73782 4.9951 9.74192 4.99919 9.74601C5.00192 9.74878 5.00602 9.75144 5.01149 9.7542L6.66463 10.7088V5.18808ZM7.56188 11.2251L9.69029 12.4541L11.8187 11.2251V8.76887L9.69229 7.53977L7.56392 8.76887L7.56188 11.2251Z" fill="white"/>
</g>
</g>
</g>
<defs>
<clipPath id="clip0_0_52">
<rect width="20" height="20" fill="white"/>
</clipPath>
</defs>
</svg>
