<svg width="18" height="17" viewBox="0 0 18 17" fill="none" xmlns="http://www.w3.org/2000/svg">
<g opacity="0.5">
<path d="M14.3782 6.82436L9.28889 11.9136C9.24162 11.961 9.18549 11.9985 9.12371 12.0241C9.06193 12.0497 8.9957 12.0629 8.92882 12.0629C8.86194 12.0629 8.79571 12.0497 8.73393 12.0241C8.67215 11.9985 8.61602 11.961 8.56875 11.9136L3.47947 6.82436C3.38397 6.72886 3.33032 6.59934 3.33032 6.46429C3.33032 6.32924 3.38397 6.19972 3.47947 6.10422C3.57496 6.00873 3.70448 5.95508 3.83953 5.95508C3.97459 5.95508 4.10411 6.00873 4.1996 6.10422L8.92882 10.8341L13.658 6.10422C13.7053 6.05694 13.7615 6.01943 13.8232 5.99384C13.885 5.96825 13.9512 5.95508 14.0181 5.95508C14.085 5.95508 14.1512 5.96825 14.213 5.99384C14.2748 6.01943 14.3309 6.05694 14.3782 6.10422C14.4255 6.15151 14.463 6.20764 14.4886 6.26942C14.5141 6.3312 14.5273 6.39742 14.5273 6.46429C14.5273 6.53116 14.5141 6.59738 14.4886 6.65916C14.463 6.72094 14.4255 6.77707 14.3782 6.82436Z" fill="white"/>
</g>
</svg>
