<svg width="168" height="40" viewBox="0 0 168 40" fill="none" xmlns="http://www.w3.org/2000/svg">
<path d="M157.075 12.65C161.561 12.65 165.244 16.5003 165.244 21.4887C165.244 26.4771 161.561 30.3274 157.075 30.3274C154.631 30.3274 152.857 29.4229 151.652 27.8823V36.5532H147.333V13.1197H151.652V15.0939C152.857 13.5545 154.631 12.6513 157.075 12.6513M156.272 26.21C158.95 26.21 160.925 24.3016 160.925 21.49C160.925 18.6771 158.95 16.7687 156.272 16.7687C153.627 16.7687 151.652 18.6784 151.652 21.49C151.652 24.3029 153.627 26.21 156.272 26.21ZM139.058 13.1184H143.377V29.8578H139.058V27.9829C138.054 29.49 136.314 30.3261 134.07 30.3261C130.521 30.3261 127.742 27.8487 127.742 23.3971V13.1184H132.061V22.8603C132.061 25.1378 133.434 26.3094 135.375 26.3094C137.485 26.3094 139.058 25.0707 139.058 22.1571V13.1184ZM124.703 17.2694H120.92V24.2332C120.92 26.041 122.226 26.0745 124.703 25.9403V29.8578C118.644 30.5274 116.601 28.7532 116.601 24.232V17.2694H113.69V13.1184H116.603V9.73776L120.921 8.43066V13.1184H124.705L124.703 17.2694ZM107.057 15.9971C107.926 13.721 110.036 12.7842 112.145 12.7842V17.6049C109.902 17.3365 107.057 18.3403 107.057 21.8565V29.8565H102.735V13.1197H107.055L107.057 15.9971ZM94.5032 13.1184H98.8206V29.8578H94.5032V27.8836C93.2981 29.3894 91.4903 30.3261 89.0452 30.3261C84.5935 30.3261 80.911 26.4771 80.911 21.4874C80.911 16.5003 84.5935 12.6487 89.0464 12.6487C91.4903 12.6487 93.2981 13.5868 94.5045 15.0939L94.5032 13.1184ZM89.849 26.2087C92.5265 26.2087 94.5019 24.3003 94.5019 21.4887C94.5019 18.6758 92.5277 16.7674 89.849 16.7674C87.2039 16.7674 85.2284 18.6771 85.2284 21.4887C85.2284 24.3016 87.2039 26.2087 89.849 26.2087ZM79.2581 17.2694H75.4748V24.2332C75.4748 26.041 76.7806 26.0745 79.2581 25.9403V29.8578C73.1987 30.5274 71.1561 28.7532 71.1561 24.232V17.2694H68.2439V13.1184H71.1561V9.73776L75.4748 8.43066V13.1184H79.2581V17.2694ZM58.7587 17.872C58.7587 20.3494 67.3961 18.81 67.3961 24.97C67.3961 28.5855 64.249 30.3261 60.6671 30.3261C57.3187 30.3261 54.8413 28.9197 53.6348 26.3429L57.3858 24.2332C57.8542 25.6061 58.9923 26.41 60.6671 26.41C62.0387 26.41 62.9768 25.9403 62.9768 24.97C62.9768 22.5261 54.3394 23.8655 54.3394 17.9726C54.3394 14.5584 57.2516 12.65 60.7006 12.65C63.4116 12.65 65.7561 13.8887 67.0619 16.1984L63.3781 18.2074C62.8761 17.1365 61.9394 16.5003 60.7006 16.5003C59.6297 16.5003 58.7587 16.9687 58.7587 17.872ZM13.711 23.9416L6.1471 31.5829C5.64746 32.0843 4.96914 32.3666 4.26134 32.3678C3.55354 32.369 2.87425 32.089 2.3729 31.5894C1.87156 31.0897 1.58923 30.4114 1.58802 29.7036C1.58681 28.9958 1.86682 28.3165 2.36645 27.8152L12.5071 17.712C13.0344 17.1862 13.7485 16.8905 14.4931 16.8895C15.2378 16.8886 15.9526 17.1824 16.4813 17.7068L21.2787 22.4681L29.3277 14.3132H23.8568C23.1832 14.2982 22.5423 14.02 22.0712 13.5383C21.6001 13.0566 21.3364 12.4096 21.3364 11.7358C21.3364 11.0621 21.6001 10.4151 22.0712 9.93336C22.5423 9.45165 23.1832 9.17348 23.8568 9.15841H35.5058C37.0619 9.15841 38.3239 10.4191 38.3239 11.9765V23.5197C38.3085 24.2211 38.019 24.8887 37.5175 25.3793C37.016 25.87 36.3423 26.1447 35.6406 26.1447C34.939 26.1447 34.2653 25.87 33.7638 25.3793C33.2623 24.8887 32.9728 24.2211 32.9574 23.5197V18.0487L23.6232 27.3416C22.9969 27.9654 22.1511 28.3191 21.2671 28.3268C20.3832 28.3345 19.5313 27.9957 18.8942 27.3829L15.2929 23.921C15.0793 23.7162 14.7937 23.6035 14.4977 23.6074C14.2018 23.6112 13.9192 23.7313 13.711 23.9416Z" fill="white"/>
</svg>
