<svg width="180" height="40" viewBox="0 0 180 40" fill="none" xmlns="http://www.w3.org/2000/svg">
<path d="M167.393 15.2282H170.594L170.719 16.9026C171.109 16.2898 171.649 15.7866 172.288 15.4409C172.927 15.0952 173.644 14.9183 174.37 14.9271C177.488 14.9271 179.038 16.836 179.021 20.6538V21.3293H179.046V27.7293H175.67V21.3293H175.646C175.646 20.1293 175.437 19.296 175.02 18.8293C174.62 18.3456 174.037 18.1038 173.27 18.1038C172.453 18.1038 171.828 18.3704 171.394 18.9038C170.977 19.4201 170.769 20.1701 170.769 21.1538V27.7304H167.393V15.2282ZM158.741 28.0304C157.474 28.0304 156.341 27.7552 155.34 27.2049C154.36 26.6576 153.547 25.8536 152.99 24.8793C152.44 23.8793 152.164 22.746 152.164 21.4793C152.164 20.2126 152.44 19.0875 152.99 18.1038C153.533 17.1271 154.339 16.3217 155.316 15.7782C156.299 15.2115 157.424 14.9282 158.691 14.9282C159.958 14.9282 161.083 15.2115 162.067 15.7782C163.051 16.3117 163.859 17.1197 164.392 18.1038C164.959 19.0875 165.242 20.2126 165.242 21.4793C165.242 22.746 164.967 23.8793 164.417 24.8793C163.873 25.856 163.068 26.6614 162.091 27.2049C161.108 27.7552 159.991 28.0304 158.741 28.0304ZM155.64 21.4793C155.64 22.4956 155.923 23.3289 156.49 23.9793C157.074 24.6126 157.825 24.9293 158.741 24.9293C159.641 24.9293 160.374 24.6126 160.941 23.9793C161.508 23.3289 161.791 22.4956 161.791 21.4793C161.791 20.4623 161.5 19.6371 160.917 19.0038C160.35 18.3534 159.608 18.0282 158.691 18.0282C157.808 18.0282 157.074 18.3534 156.49 19.0038C155.923 19.6371 155.64 20.4623 155.64 21.4793ZM146.447 15.2282H149.822V27.7304H146.447V15.2282ZM148.147 13.2526C147.613 13.2526 147.155 13.0608 146.772 12.6771C146.589 12.5034 146.443 12.294 146.344 12.0618C146.245 11.8296 146.195 11.5795 146.197 11.3271C146.197 10.7938 146.389 10.3352 146.772 9.95153C147.172 9.56783 147.63 9.37598 148.147 9.37598C148.663 9.37598 149.113 9.56783 149.498 9.95153C149.881 10.3352 150.072 10.7938 150.072 11.3271C150.072 11.8434 149.881 12.2934 149.498 12.6771C149.131 13.0608 148.681 13.2526 148.147 13.2526ZM141.338 28.0304C139.954 28.0304 138.896 27.6889 138.162 27.006C137.446 26.323 137.088 25.3393 137.088 24.0549V18.0793H135.087V15.2282H137.088V11.3282H140.463V15.2282H143.563V18.0793H140.463V23.3049C140.463 23.8552 140.571 24.2638 140.788 24.5304C141.021 24.7801 141.371 24.9049 141.839 24.9049C142.172 24.9049 142.547 24.7549 142.963 24.4549L144.163 26.9804C143.747 27.2967 143.289 27.5467 142.789 27.7304C142.289 27.9304 141.805 28.0304 141.338 28.0304ZM130.281 26.3049C129.581 27.4552 128.431 28.0304 126.831 28.0304C125.33 28.0304 124.163 27.6971 123.33 27.0304C122.513 26.3638 122.104 25.4219 122.104 24.2049C122.104 22.8878 122.546 21.8878 123.43 21.2049C124.313 20.5204 125.563 20.1782 127.181 20.1782H130.157C129.923 18.6286 129.165 17.8538 127.881 17.8538C126.781 17.8538 125.947 18.3204 125.38 19.2538L122.404 18.2282C122.804 17.2949 123.455 16.5115 124.356 15.8782C125.273 15.2449 126.448 14.9282 127.881 14.9282C129.748 14.9282 131.165 15.453 132.132 16.5026C133.099 17.536 133.566 18.9697 133.532 20.8038L133.482 27.7304H130.331L130.281 26.3049ZM125.556 24.1049C125.556 24.4552 125.722 24.7386 126.056 24.9549C126.389 25.1549 126.847 25.2549 127.431 25.2549C127.948 25.2549 128.415 25.1297 128.831 24.8793C129.264 24.6297 129.606 24.3049 129.857 23.9049C130.106 23.5049 130.231 23.0882 130.231 22.6549H128.381C127.364 22.6549 126.639 22.7797 126.206 23.0293C125.772 23.2626 125.556 23.6212 125.556 24.1049ZM115.181 28.0304C113.881 28.0304 112.723 27.7552 111.706 27.2049C110.712 26.6585 109.883 25.8554 109.306 24.8793C108.739 23.8793 108.455 22.746 108.454 21.4793C108.454 20.2126 108.738 19.0875 109.304 18.1038C109.857 17.1165 110.681 16.3092 111.68 15.7782C112.698 15.2115 113.848 14.9282 115.131 14.9282C116.414 14.9282 117.564 15.2449 118.582 15.8782C119.616 16.5115 120.366 17.4034 120.832 18.5538L117.657 19.6782C117.422 19.1953 117.047 18.7945 116.581 18.5282C116.096 18.2448 115.543 18.0982 114.981 18.1038C114.081 18.1038 113.348 18.4204 112.781 19.0538C112.214 19.6708 111.93 20.4793 111.93 21.4793C111.93 22.463 112.214 23.2715 112.781 23.9049C113.365 24.5382 114.115 24.8549 115.031 24.8549C115.614 24.8549 116.147 24.7049 116.631 24.4049C117.115 24.0886 117.473 23.6719 117.707 23.1549L120.908 24.2793C120.423 25.463 119.673 26.3882 118.657 27.0549C117.64 27.7052 116.481 28.0304 115.181 28.0304ZM102.737 15.2282H106.112V27.7304H102.737V15.2282ZM104.437 13.2526C104.181 13.2549 103.927 13.2051 103.69 13.1061C103.454 13.0072 103.24 12.8612 103.062 12.6771C102.879 12.5034 102.733 12.294 102.634 12.0618C102.535 11.8296 102.485 11.5795 102.487 11.3271C102.487 10.7938 102.679 10.3352 103.062 9.95153C103.462 9.56783 103.92 9.37598 104.437 9.37598C104.953 9.37598 105.403 9.56783 105.788 9.95153C106.172 10.3352 106.364 10.7938 106.362 11.3271C106.362 11.8434 106.171 12.2934 105.788 12.6771C105.421 13.0608 104.971 13.2526 104.437 13.2526ZM96.3333 9.72709H99.71V27.7304H96.3344L96.3333 9.72709ZM81.4411 15.2282H84.6422L84.7678 16.9526C85.1566 16.3269 85.6984 15.8107 86.3422 15.4526C86.9926 15.103 87.7344 14.9282 88.5678 14.9282C89.7011 14.9282 90.693 15.1949 91.5433 15.7282C92.41 16.2615 93.0685 17.0201 93.5189 18.0038C93.9855 18.9875 94.2189 20.146 94.2189 21.4793C94.2189 22.7963 93.9855 23.9549 93.5189 24.9549C93.0685 25.9386 92.41 26.6971 91.5433 27.2304C90.6937 27.7638 89.7018 28.0304 88.5678 28.0304C87.7507 28.0304 87.0255 27.8638 86.3922 27.5304C85.7542 27.1754 85.2134 26.6686 84.8178 26.0549V32.7315H81.4411V15.2282ZM84.8178 21.4793C84.8178 22.4956 85.0844 23.3289 85.6178 23.9793C86.1681 24.6126 86.8681 24.9293 87.7178 24.9293C88.5844 24.9293 89.3015 24.6045 89.8689 23.9549C90.4356 23.3045 90.7189 22.4793 90.7189 21.4793C90.7189 20.4793 90.4352 19.6623 89.8678 19.0282C89.3181 18.3786 88.61 18.0538 87.7433 18.0538C86.8767 18.0538 86.1681 18.3704 85.6178 19.0038C85.0844 19.6371 84.8178 20.4623 84.8178 21.4793ZM66.4244 15.2282H69.6244L69.75 16.9526C70.1388 16.3269 70.6807 15.8107 71.3244 15.4526C71.9756 15.103 72.7174 14.9282 73.55 14.9282C74.6833 14.9282 75.6752 15.1949 76.5256 15.7282C77.3922 16.2615 78.0507 17.0201 78.5011 18.0038C78.9678 18.9875 79.2011 20.146 79.2011 21.4793C79.2011 22.7963 78.9678 23.9549 78.5011 24.9549C78.0507 25.9386 77.3922 26.6971 76.5256 27.2304C75.6759 27.7638 74.6841 28.0304 73.55 28.0304C72.7337 28.0304 72.0085 27.8638 71.3744 27.5304C70.7364 27.1754 70.1956 26.6686 69.8 26.0549V32.7315H66.4244V15.2282ZM69.8 21.4793C69.8 22.4956 70.0667 23.3289 70.6 23.9793C71.1504 24.6126 71.8504 24.9293 72.7 24.9293C73.5667 24.9293 74.2833 24.6045 74.85 23.9549C75.4174 23.3045 75.7011 22.4793 75.7011 21.4793C75.7011 20.4793 75.4174 19.6623 74.85 19.0282C74.3004 18.3786 73.5922 18.0538 72.7256 18.0538C71.8589 18.0538 71.1504 18.3704 70.6 19.0038C70.0667 19.6371 69.8 20.4623 69.8 21.4793ZM60.4433 26.3049C59.7433 27.4552 58.593 28.0304 56.9922 28.0304C55.4922 28.0304 54.3256 27.6971 53.4922 27.0304C52.6752 26.3638 52.2667 25.4219 52.2667 24.2049C52.2667 22.8878 52.7085 21.8878 53.5922 21.2049C54.4759 20.5204 55.7259 20.1782 57.3422 20.1782H60.3178C60.0844 18.6286 59.3263 17.8538 58.0433 17.8538C56.9433 17.8538 56.1096 18.3204 55.5422 19.2538L52.5667 18.2282C52.9667 17.2949 53.6167 16.5115 54.5167 15.8782C55.4337 15.2449 56.6093 14.9282 58.0433 14.9282C59.91 14.9282 61.3267 15.453 62.2933 16.5026C63.26 17.536 63.7267 18.9697 63.6933 20.8038L63.6444 27.7304H60.4933L60.4433 26.3049ZM55.7167 24.1049C55.7167 24.4552 55.8833 24.7386 56.2167 24.9549C56.55 25.1549 57.0085 25.2549 57.5922 25.2549C58.1093 25.2549 58.5759 25.1297 58.9922 24.8793C59.4255 24.6297 59.7674 24.3049 60.0178 23.9049C60.2681 23.5049 60.3933 23.0882 60.3933 22.6549H58.5433C57.5263 22.6549 56.8011 22.7797 56.3678 23.0293C55.9344 23.2626 55.7174 23.6212 55.7167 24.1049Z" fill="white"/>
<path fill-rule="evenodd" clip-rule="evenodd" d="M17.9089 31.944H9.83111C7.5473 31.944 5.35703 31.0368 3.74214 29.4219C2.12724 27.807 1.22 25.6167 1.22 23.3329C1.22002 21.3275 1.96598 19.3938 3.31278 17.908C4.65958 16.4222 6.51092 15.4904 8.50667 15.294C8.64901 13.2538 9.55994 11.3436 11.0556 9.94872C12.5513 8.55387 14.5204 7.77828 16.5656 7.77846H16.8322C19.0399 7.77716 21.1578 8.65192 22.7211 10.2107C24.814 8.6289 27.3666 7.77442 29.99 7.77735H30.5967C36.9356 7.77735 42.0733 12.9151 42.0733 19.2529C42.0733 26.2618 36.3922 31.9418 29.3844 31.9418L17.9089 31.944Z" fill="white"/>
</svg>
