<svg width="1140" height="48" viewBox="0 0 1140 48" fill="none" xmlns="http://www.w3.org/2000/svg">
<g clip-path="url(#clip0_0_93)">
<g opacity="0.5">
<g clip-path="url(#clip1_0_93)">
<g clip-path="url(#clip2_0_93)">
<path d="M42.782 23.0839L38.661 23.3399C38.592 22.9879 38.435 22.6589 38.206 22.3839C37.96 22.0829 37.644 21.8459 37.287 21.6939C36.914 21.5179 36.466 21.4299 35.945 21.4299C35.248 21.4299 34.659 21.5779 34.181 21.8749C33.701 22.1649 33.462 22.5539 33.462 23.0429C33.462 23.4309 33.616 23.7599 33.926 24.0279C34.237 24.2969 34.769 24.5129 35.523 24.6759L38.46 25.2699C40.038 25.5949 41.215 26.1189 41.99 26.8399C42.765 27.5619 43.153 28.5099 43.152 29.6849C43.152 30.7519 42.838 31.6889 42.212 32.4949C41.592 33.3019 40.74 33.9309 39.654 34.3839C38.576 34.8289 37.332 35.0519 35.924 35.0519C33.775 35.0519 32.064 34.6029 30.788 33.7049C29.519 32.7989 28.776 31.5679 28.559 30.0129L32.986 29.7789C33.12 30.4379 33.444 30.9399 33.958 31.2859C34.473 31.6259 35.131 31.7949 35.935 31.7949C36.724 31.7949 37.358 31.6429 37.837 31.3389C38.323 31.0279 38.57 30.6279 38.577 30.1409C38.576 29.9439 38.528 29.7489 38.438 29.5739C38.347 29.3989 38.218 29.2469 38.059 29.1319C37.721 28.8629 37.199 28.6579 36.494 28.5169L33.684 27.9549C32.099 27.6369 30.918 27.0849 30.144 26.2989C29.376 25.5149 28.992 24.5139 28.992 23.2969C28.992 22.2489 29.274 21.3469 29.837 20.5909C30.407 19.8339 31.206 19.2509 32.236 18.8409C33.272 18.4299 34.484 18.2249 35.871 18.2249C37.921 18.2249 39.534 18.6599 40.711 19.5309C41.895 20.3999 42.586 21.5849 42.782 23.0839ZM26.072 23.0839L21.951 23.3399C21.879 22.9889 21.724 22.6609 21.497 22.3839C21.25 22.0829 20.934 21.8459 20.577 21.6939C20.202 21.5179 19.756 21.4299 19.234 21.4299C18.537 21.4299 17.949 21.5779 17.47 21.8749C16.99 22.1649 16.751 22.5539 16.751 23.0429C16.751 23.4309 16.906 23.7599 17.216 24.0279C17.526 24.2969 18.057 24.5129 18.811 24.6759L21.75 25.2699C23.328 25.5949 24.505 26.1189 25.279 26.8399C26.055 27.5619 26.442 28.5099 26.442 29.6849C26.442 30.7519 26.129 31.6889 25.501 32.4949C24.882 33.3019 24.029 33.9309 22.944 34.3839C21.866 34.8289 20.623 35.0519 19.213 35.0519C17.065 35.0519 15.352 34.6029 14.077 33.7049C12.809 32.7989 12.066 31.5679 11.847 30.0129L16.276 29.7789C16.41 30.4379 16.734 30.9399 17.248 31.2859C17.762 31.6259 18.421 31.7949 19.224 31.7949C20.013 31.7949 20.647 31.6429 21.126 31.3389C21.612 31.0279 21.859 30.6279 21.866 30.1409C21.865 29.9439 21.817 29.7499 21.727 29.5739C21.638 29.3989 21.507 29.2479 21.348 29.1319C21.01 28.8629 20.488 28.6579 19.784 28.5169L16.973 27.9549C15.388 27.6369 14.208 27.0849 13.432 26.2989C12.665 25.5149 12.281 24.5139 12.281 23.2969C12.281 22.2489 12.563 21.3469 13.126 20.5909C13.697 19.8339 14.498 19.2509 15.525 18.8409C16.561 18.4299 17.773 18.2249 19.161 18.2249C21.211 18.2249 22.824 18.6599 24.001 19.5309C25.184 20.3999 25.874 21.5849 26.072 23.0839ZM2.17799 35.0529C0.507996 35.0529 -0.929016 34.7129 -2.13402 34.0339C-3.32101 33.3589 -4.28401 32.3479 -4.90302 31.1269C-5.55102 29.8689 -5.87601 28.3789 -5.87601 26.6599C-5.87601 24.9839 -5.55102 23.5129 -4.90302 22.2459C-4.25401 20.9789 -3.34201 19.9929 -2.16501 19.2859C-0.98201 18.5789 0.404991 18.2249 1.99899 18.2249C3.06999 18.2249 4.06599 18.3979 4.98898 18.7449C5.91898 19.0849 6.72998 19.5969 7.41998 20.2839C8.11698 20.9699 8.65998 21.8329 9.04698 22.8719C9.43398 23.9049 9.62799 25.1139 9.62799 26.5009V27.7419H-4.078V24.9419H5.39099C5.39099 24.2909 5.24998 23.7139 4.96799 23.2119C4.69398 22.7169 4.28798 22.3089 3.79498 22.0339C3.30199 21.7439 2.72799 21.5989 2.07199 21.5989C1.38799 21.5989 0.78299 21.7579 0.25499 22.0769C-0.267014 22.3869 -0.675018 22.8089 -0.972015 23.3399C-1.26701 23.8619 -1.41801 24.4449 -1.42601 25.0899V27.7539C-1.42601 28.5599 -1.27802 29.2559 -0.983017 29.8439C-0.679016 30.4309 -0.252007 30.8829 0.29599 31.2009C0.846992 31.5199 1.49899 31.6789 2.25099 31.6789C2.75199 31.6789 3.20999 31.6079 3.62599 31.4659C4.04099 31.3249 4.396 31.1129 4.69299 30.8289C4.98899 30.5469 5.21399 30.2009 5.36899 29.7909L9.53299 30.0669C9.33499 31.0419 8.88699 31.9489 8.23299 32.6969C7.58498 33.4399 6.74699 34.0199 5.71799 34.4369C4.69598 34.8479 3.51599 35.0529 2.17799 35.0529ZM-19.231 25.3119V34.7339H-23.731V18.4379H-19.44V21.3129H-19.25C-18.907 20.3859 -18.272 19.5959 -17.443 19.0629C-16.598 18.5039 -15.573 18.2249 -14.367 18.2249C-13.24 18.2249 -12.258 18.4719 -11.42 18.9669C-10.581 19.4629 -9.93001 20.1709 -9.464 21.0899C-8.99901 22.0019 -8.76701 23.0909 -8.76701 24.3579V34.7339H-13.269V25.1649C-13.262 24.1669 -13.516 23.3889 -14.03 22.8299C-14.543 22.2639 -15.252 21.9809 -16.153 21.9809C-16.76 21.9809 -17.296 22.1119 -17.759 22.3739C-18.218 22.6349 -18.577 23.0169 -18.837 23.5199C-19.091 24.0149 -19.223 24.6129 -19.231 25.3119ZM-31.841 34.7339V18.4379H-27.338V34.7339H-31.841ZM-29.578 16.3359C-30.218 16.3489 -30.836 16.1089 -31.301 15.6679C-31.773 15.2159 -32.01 14.6739 -32.01 14.0449C-32.01 13.4229 -31.773 12.8889 -31.301 12.4429C-30.822 11.9899 -30.248 11.7639 -29.578 11.7639C-28.91 11.7639 -28.339 11.9899 -27.867 12.4429C-27.388 12.8879 -27.148 13.4219 -27.148 14.0449C-27.148 14.6739 -27.388 15.2159 -27.867 15.6679C-28.327 16.1089 -28.942 16.3489 -29.578 16.3359ZM-35.045 23.0839L-39.167 23.3399C-39.236 22.9879 -39.392 22.6589 -39.621 22.3839C-39.868 22.0829 -40.183 21.8459 -40.541 21.6939C-40.913 21.5179 -41.361 21.4299 -41.883 21.4299C-42.58 21.4299 -43.168 21.5779 -43.647 21.8749C-44.126 22.1649 -44.366 22.5539 -44.366 23.0429C-44.366 23.4309 -44.211 23.7599 -43.902 24.0279C-43.592 24.2969 -43.06 24.5129 -42.305 24.6759L-39.368 25.2699C-37.789 25.5949 -36.613 26.1189 -35.837 26.8399C-35.062 27.5619 -34.675 28.5099 -34.675 29.6849C-34.675 30.7519 -34.989 31.6889 -35.616 32.4949C-36.235 33.3019 -37.088 33.9309 -38.174 34.3839C-39.252 34.8289 -40.495 35.0519 -41.904 35.0519C-44.052 35.0519 -45.764 34.6029 -47.04 33.7049C-48.308 32.7989 -49.051 31.5679 -49.269 30.0129L-44.842 29.7789C-44.707 30.4379 -44.383 30.9399 -43.869 31.2859C-43.356 31.6259 -42.697 31.7949 -41.893 31.7949C-41.105 31.7949 -40.471 31.6429 -39.99 31.3389C-39.505 31.0279 -39.258 30.6279 -39.251 30.1409C-39.251 29.9429 -39.298 29.7489 -39.389 29.5729C-39.479 29.3979 -39.609 29.2469 -39.769 29.1319C-40.108 28.8629 -40.629 28.6579 -41.333 28.5169L-44.144 27.9549C-45.73 27.6369 -46.91 27.0849 -47.684 26.2989C-48.453 25.5149 -48.836 24.5139 -48.836 23.2969C-48.836 22.2489 -48.554 21.3469 -47.99 20.5909C-47.42 19.8339 -46.621 19.2509 -45.592 18.8409C-44.556 18.4299 -43.344 18.2249 -41.956 18.2249C-39.907 18.2249 -38.294 18.6599 -37.116 19.5309C-35.932 20.3999 -35.242 21.5849 -35.045 23.0839ZM-56.653 27.7959V18.4379H-52.152V34.7349H-56.474V31.7749H-56.643C-57.01 32.7299 -57.619 33.4969 -58.471 34.0779C-59.316 34.6569 -60.349 34.9469 -61.568 34.9469C-62.653 34.9469 -63.608 34.6989 -64.432 34.2039C-65.256 33.7089 -65.901 33.0049 -66.366 32.0919C-66.825 31.1799 -67.057 30.0879 -67.063 28.8139V18.4379H-62.561V28.0069C-62.554 28.9699 -62.298 29.7299 -61.791 30.2889C-61.283 30.8479 -60.603 31.1269 -59.75 31.1269C-59.207 31.1269 -58.7 31.0039 -58.228 30.7559C-57.756 30.5019 -57.376 30.1279 -57.087 29.6319C-56.791 29.1369 -56.646 28.5249 -56.653 27.7959ZM-85.898 34.7339V13.0049H-81.397V21.1749H-81.259C-81.062 20.7359 -80.777 20.2899 -80.402 19.8379C-80.022 19.3779 -79.529 18.9959 -78.923 18.6919C-78.311 18.3809 -77.55 18.2259 -76.64 18.2249C-75.482 18.2159 -74.346 18.5399 -73.364 19.1589C-72.364 19.7739 -71.564 20.7049 -70.966 21.9499C-70.367 23.1869 -70.067 24.7399 -70.067 26.6069C-70.067 28.4249 -70.359 29.9609 -70.944 31.2129C-71.523 32.4559 -72.312 33.4009 -73.312 34.0459C-74.306 34.6809 -75.419 34.9989 -76.652 34.9999C-77.525 34.9999 -78.268 34.8549 -78.881 34.5649C-79.447 34.3049 -79.954 33.9329 -80.371 33.4709C-80.731 33.0679 -81.03 32.6139 -81.259 32.1239H-81.46V34.7339H-85.898ZM-81.492 26.5859C-81.492 27.5549 -81.358 28.3999 -81.09 29.1219C-80.822 29.8429 -80.434 30.4049 -79.927 30.8089C-79.42 31.2049 -78.804 31.4029 -78.077 31.4029C-77.345 31.4029 -76.725 31.2009 -76.218 30.7979C-75.711 30.3879 -75.327 29.8219 -75.065 29.1009C-74.798 28.3719 -74.664 27.5339 -74.664 26.5859C-74.664 25.6449 -74.794 24.8169 -75.055 24.1029C-75.315 23.3889 -75.699 22.8299 -76.208 22.4269C-76.715 22.0239 -77.338 21.8219 -78.077 21.8219C-78.811 21.8219 -79.431 22.0169 -79.938 22.4059C-80.438 22.7949 -80.822 23.3469 -81.089 24.0609C-81.357 24.7749 -81.492 25.6159 -81.492 26.5859Z" fill="white"/>
</g>
</g>
</g>
<g opacity="0.5">
<g clip-path="url(#clip3_0_93)">
<path d="M264.476 19.466H267.5L267.617 21.057C267.986 20.475 268.497 19.997 269.099 19.668C269.703 19.34 270.381 19.172 271.066 19.18C274.012 19.18 275.477 20.994 275.461 24.621V25.262H275.484V31.342H272.295V25.262H272.272C272.272 24.122 272.075 23.331 271.681 22.887C271.304 22.428 270.752 22.198 270.027 22.198C269.255 22.198 268.665 22.451 268.256 22.958C267.862 23.449 267.664 24.161 267.664 25.096V31.343H264.476V19.466ZM256.302 31.628C255.105 31.628 254.034 31.367 253.088 30.844C252.162 30.324 251.395 29.561 250.868 28.635C250.348 27.685 250.088 26.608 250.088 25.405C250.088 24.202 250.348 23.133 250.868 22.198C251.382 21.27 252.142 20.505 253.065 19.989C253.995 19.451 255.058 19.181 256.255 19.181C257.451 19.181 258.514 19.451 259.443 19.989C260.373 20.496 261.136 21.263 261.641 22.198C262.175 23.133 262.444 24.202 262.444 25.405C262.444 26.608 262.184 27.685 261.663 28.635C261.15 29.563 260.389 30.328 259.467 30.844C258.538 31.367 257.483 31.628 256.302 31.628ZM253.371 25.405C253.371 26.37 253.64 27.162 254.174 27.78C254.727 28.382 255.436 28.682 256.302 28.682C257.152 28.682 257.845 28.382 258.38 27.78C258.915 27.162 259.183 26.37 259.183 25.405C259.183 24.439 258.907 23.655 258.357 23.053C257.821 22.435 257.121 22.126 256.255 22.126C255.42 22.126 254.727 22.435 254.174 23.053C253.64 23.655 253.371 24.439 253.371 25.405ZM244.686 19.466H247.876V31.343H244.686V19.466ZM246.292 17.59C245.789 17.59 245.356 17.407 244.994 17.043C244.821 16.878 244.683 16.679 244.59 16.458C244.496 16.238 244.449 16 244.45 15.76C244.45 15.254 244.631 14.818 244.994 14.454C245.372 14.089 245.805 13.907 246.292 13.907C246.78 13.907 247.206 14.089 247.569 14.454C247.93 14.818 248.112 15.254 248.112 15.76C248.112 16.251 247.93 16.678 247.569 17.043C247.223 17.407 246.797 17.59 246.292 17.59ZM239.859 31.628C238.553 31.628 237.552 31.304 236.86 30.655C236.182 30.006 235.844 29.072 235.844 27.852V22.175H233.954V19.466H235.844V15.761H239.034V19.466H241.962V22.175H239.034V27.139C239.034 27.662 239.136 28.05 239.34 28.303C239.561 28.541 239.892 28.659 240.333 28.659C240.648 28.659 241.003 28.517 241.396 28.232L242.529 30.631C242.136 30.931 241.703 31.169 241.23 31.343C240.758 31.533 240.302 31.628 239.859 31.628ZM229.414 29.989C228.753 31.082 227.666 31.628 226.155 31.628C224.737 31.628 223.634 31.312 222.846 30.678C222.074 30.045 221.689 29.15 221.689 27.994C221.689 26.743 222.107 25.793 222.941 25.144C223.775 24.494 224.957 24.169 226.485 24.169H229.296C229.076 22.697 228.359 21.961 227.147 21.961C226.108 21.961 225.32 22.404 224.784 23.291L221.972 22.316C222.35 21.43 222.964 20.686 223.816 20.084C224.682 19.482 225.792 19.181 227.147 19.181C228.91 19.181 230.248 19.68 231.163 20.677C232.076 21.659 232.517 23.021 232.486 24.763L232.438 31.343H229.461L229.414 29.989ZM224.949 27.899C224.949 28.232 225.107 28.501 225.422 28.707C225.736 28.897 226.17 28.992 226.722 28.992C227.21 28.992 227.65 28.873 228.044 28.635C228.453 28.398 228.777 28.089 229.013 27.709C229.249 27.329 229.367 26.933 229.367 26.522H227.619C226.658 26.522 225.973 26.64 225.563 26.877C225.154 27.099 224.949 27.44 224.949 27.899ZM215.148 31.628C213.92 31.628 212.825 31.367 211.865 30.844C210.925 30.325 210.142 29.562 209.597 28.635C209.061 27.685 208.794 26.608 208.793 25.405C208.793 24.202 209.061 23.133 209.596 22.198C210.118 21.26 210.897 20.493 211.84 19.989C212.802 19.451 213.889 19.181 215.101 19.181C216.313 19.181 217.4 19.482 218.362 20.084C219.338 20.686 220.046 21.533 220.487 22.626L217.487 23.694C217.266 23.235 216.911 22.854 216.471 22.601C216.012 22.332 215.49 22.193 214.96 22.198C214.109 22.198 213.416 22.499 212.881 23.101C212.344 23.687 212.076 24.455 212.076 25.405C212.076 26.339 212.344 27.108 212.881 27.709C213.432 28.311 214.14 28.612 215.007 28.612C215.558 28.612 216.061 28.469 216.518 28.184C216.975 27.884 217.314 27.488 217.534 26.997L220.558 28.065C220.101 29.189 219.391 30.068 218.431 30.702C217.471 31.32 216.377 31.628 215.148 31.628ZM203.391 19.466H206.581V31.343H203.391V19.466ZM204.997 17.59C204.755 17.592 204.515 17.544 204.292 17.45C204.069 17.356 203.867 17.218 203.699 17.043C203.526 16.878 203.388 16.679 203.295 16.458C203.201 16.238 203.154 16 203.155 15.76C203.155 15.254 203.336 14.818 203.699 14.454C204.077 14.089 204.51 13.907 204.997 13.907C205.485 13.907 205.911 14.089 206.273 14.454C206.637 14.818 206.818 15.254 206.817 15.76C206.817 16.251 206.635 16.678 206.273 17.043C205.928 17.407 205.502 17.59 204.997 17.59ZM197.342 14.24H200.531V31.343H197.343L197.342 14.24ZM183.272 19.466H186.296L186.415 21.105C186.782 20.51 187.294 20.02 187.903 19.68C188.517 19.347 189.218 19.181 190.005 19.181C191.076 19.181 192.013 19.435 192.816 19.941C193.635 20.448 194.257 21.169 194.683 22.103C195.124 23.038 195.344 24.138 195.344 25.405C195.344 26.656 195.124 27.757 194.683 28.707C194.257 29.641 193.635 30.362 192.816 30.868C192.014 31.375 191.076 31.628 190.005 31.628C189.233 31.628 188.548 31.47 187.95 31.153C187.347 30.816 186.836 30.335 186.462 29.752V36.095H183.272V19.466ZM186.462 25.405C186.462 26.37 186.714 27.162 187.218 27.78C187.738 28.382 188.399 28.682 189.202 28.682C190.021 28.682 190.698 28.374 191.234 27.757C191.77 27.139 192.037 26.355 192.037 25.405C192.037 24.455 191.769 23.679 191.233 23.076C190.714 22.459 190.045 22.151 189.226 22.151C188.407 22.151 187.738 22.451 187.218 23.053C186.714 23.655 186.462 24.439 186.462 25.405ZM169.085 19.466H172.108L172.227 21.105C172.594 20.51 173.106 20.02 173.714 19.68C174.33 19.347 175.03 19.181 175.817 19.181C176.888 19.181 177.825 19.435 178.628 19.941C179.447 20.448 180.069 21.169 180.495 22.103C180.936 23.038 181.156 24.138 181.156 25.405C181.156 26.656 180.936 27.757 180.495 28.707C180.069 29.641 179.447 30.362 178.628 30.868C177.826 31.375 176.889 31.628 175.817 31.628C175.046 31.628 174.361 31.47 173.762 31.153C173.159 30.816 172.648 30.335 172.274 29.752V36.095H169.085V19.466ZM172.274 25.405C172.274 26.37 172.526 27.162 173.03 27.78C173.55 28.382 174.211 28.682 175.014 28.682C175.833 28.682 176.51 28.374 177.045 27.757C177.581 27.139 177.849 26.355 177.849 25.405C177.849 24.455 177.581 23.679 177.045 23.076C176.526 22.459 175.857 22.151 175.038 22.151C174.219 22.151 173.55 22.451 173.03 23.053C172.526 23.655 172.274 24.439 172.274 25.405ZM163.434 29.989C162.773 31.082 161.686 31.628 160.174 31.628C158.757 31.628 157.655 31.312 156.867 30.678C156.096 30.045 155.71 29.15 155.71 27.994C155.71 26.743 156.127 25.793 156.962 25.144C157.797 24.494 158.978 24.169 160.505 24.169H163.316C163.095 22.697 162.379 21.961 161.167 21.961C160.128 21.961 159.34 22.404 158.804 23.291L155.993 22.316C156.371 21.43 156.985 20.686 157.835 20.084C158.702 19.482 159.812 19.181 161.167 19.181C162.931 19.181 164.269 19.68 165.182 20.677C166.096 21.659 166.536 23.021 166.505 24.763L166.459 31.343H163.482L163.434 29.989ZM158.969 27.899C158.969 28.232 159.126 28.501 159.441 28.707C159.756 28.897 160.189 28.992 160.741 28.992C161.229 28.992 161.67 28.873 162.064 28.635C162.473 28.398 162.796 28.089 163.032 27.709C163.269 27.329 163.387 26.933 163.387 26.522H161.639C160.679 26.522 159.994 26.64 159.584 26.877C159.175 27.099 158.97 27.44 158.969 27.899Z" fill="white"/>
<path d="M123.25 35.347H115.618C113.461 35.347 111.391 34.485 109.866 32.951C108.34 31.417 107.483 29.336 107.483 27.167C107.483 25.262 108.188 23.425 109.46 22.013C110.733 20.602 112.482 19.716 114.367 19.53C114.502 17.592 115.362 15.777 116.775 14.452C118.188 13.127 120.049 12.39 121.981 12.39H122.233C124.318 12.389 126.319 13.22 127.796 14.701C129.773 13.198 132.185 12.386 134.664 12.389H135.237C141.225 12.389 146.079 17.27 146.079 23.291C146.079 29.949 140.712 35.345 134.091 35.345L123.25 35.347Z" fill="white"/>
</g>
</g>
<g opacity="0.5">
<g clip-path="url(#clip4_0_93)">
<path d="M486.972 17.017C491.247 17.017 494.754 20.675 494.754 25.414C494.754 30.153 491.247 33.811 486.972 33.811C484.645 33.811 482.954 32.952 481.806 31.488V39.725H477.691V17.464H481.806V19.339C482.954 17.877 484.645 17.019 486.972 17.019M486.208 29.899C488.758 29.899 490.641 28.086 490.641 25.415C490.641 22.743 488.758 20.93 486.208 20.93C483.688 20.93 481.806 22.744 481.806 25.415C481.806 28.088 483.688 29.899 486.208 29.899ZM469.809 17.462H473.923V33.365H469.809V31.584C468.852 33.015 467.194 33.81 465.056 33.81C461.676 33.81 459.029 31.456 459.029 27.227V17.462H463.142V26.717C463.142 28.881 464.45 29.994 466.3 29.994C468.31 29.994 469.809 28.817 469.809 26.049V17.462ZM456.133 21.406H452.53V28.021C452.53 29.739 453.773 29.771 456.133 29.643V33.365C450.36 34.001 448.415 32.315 448.415 28.02V21.406H445.642V17.462H448.416V14.251L452.53 13.009V17.462H456.134L456.133 21.406ZM439.322 20.197C440.151 18.035 442.161 17.145 444.169 17.145V21.724C442.033 21.47 439.322 22.423 439.322 25.764V33.364H435.205V17.464H439.321L439.322 20.197ZM427.363 17.462H431.476V33.365H427.363V31.489C426.215 32.92 424.493 33.81 422.163 33.81C417.922 33.81 414.414 30.153 414.414 25.413C414.414 20.675 417.922 17.016 422.164 17.016C424.493 17.016 426.215 17.907 427.364 19.339L427.363 17.462ZM422.929 29.898C425.48 29.898 427.362 28.085 427.362 25.414C427.362 22.742 425.481 20.929 422.929 20.929C420.409 20.929 418.527 22.743 418.527 25.414C418.527 28.086 420.409 29.898 422.929 29.898ZM412.839 21.406H409.235V28.021C409.235 29.739 410.479 29.771 412.839 29.643V33.365C407.067 34.001 405.121 32.315 405.121 28.02V21.406H402.347V17.462H405.121V14.251L409.235 13.009V17.462H412.839V21.406ZM393.31 21.978C393.31 24.332 401.539 22.869 401.539 28.721C401.539 32.156 398.541 33.81 395.128 33.81C391.939 33.81 389.578 32.474 388.429 30.026L392.002 28.021C392.449 29.326 393.533 30.089 395.128 30.089C396.435 30.089 397.329 29.643 397.329 28.721C397.329 26.4 389.1 27.672 389.1 22.074C389.1 18.83 391.875 17.017 395.16 17.017C397.743 17.017 399.977 18.194 401.221 20.388L397.711 22.297C397.233 21.28 396.34 20.675 395.16 20.675C394.14 20.675 393.31 21.12 393.31 21.978ZM350.395 27.744L343.189 35.004C342.713 35.48 342.067 35.748 341.393 35.749C340.718 35.75 340.071 35.484 339.594 35.01C339.116 34.535 338.847 33.891 338.846 33.218C338.845 32.546 339.112 31.901 339.588 31.424L349.248 21.826C349.751 21.327 350.431 21.046 351.14 21.045C351.85 21.044 352.531 21.323 353.034 21.821L357.605 26.345L365.273 18.597H360.061C359.419 18.583 358.808 18.319 358.36 17.861C357.911 17.404 357.66 16.789 357.66 16.149C357.66 15.509 357.911 14.894 358.36 14.437C358.808 13.979 359.419 13.715 360.061 13.7H371.158C372.641 13.7 373.843 14.898 373.843 16.378V27.344C373.828 28.01 373.552 28.644 373.075 29.11C372.597 29.576 371.955 29.837 371.287 29.837C370.618 29.837 369.976 29.576 369.499 29.11C369.021 28.644 368.745 28.01 368.73 27.344V22.146L359.838 30.974C359.241 31.567 358.436 31.903 357.594 31.91C356.751 31.918 355.94 31.596 355.333 31.014L351.902 27.725C351.699 27.53 351.426 27.423 351.145 27.427C350.863 27.431 350.593 27.545 350.395 27.744Z" fill="white"/>
</g>
</g>
<g opacity="0.5">
<g clip-path="url(#clip5_0_93)">
<g clip-path="url(#clip6_0_93)">
<path d="M603.218 31.687H614.31V28.35H607.16V15.783H603.218V31.687Z" fill="white"/>
<path d="M620.88 29.4631C619.299 29.4631 618.475 28.0841 618.475 26.0151C618.475 23.9461 619.299 22.5451 620.88 22.5451C622.462 22.5451 623.308 23.9461 623.308 26.0151C623.308 28.0841 622.462 29.4631 620.88 29.4631ZM620.902 32.0431C624.577 32.0431 626.983 29.4411 626.983 26.0151C626.983 22.5891 624.577 19.9871 620.902 19.9871C617.25 19.9871 614.8 22.5891 614.8 26.0151C614.8 29.4411 617.25 32.0431 620.902 32.0431Z" fill="white"/>
<path d="M633.345 35.624C635.037 35.624 636.53 35.246 637.532 34.356C638.445 33.533 639.046 32.288 639.046 30.575V20.298H635.572V21.522H635.527C634.859 20.565 633.835 19.965 632.32 19.965C629.492 19.965 627.532 22.322 627.532 25.659C627.532 29.151 629.915 31.064 632.476 31.064C633.857 31.064 634.726 30.508 635.394 29.752H635.483V30.886C635.483 32.265 634.837 33.066 633.3 33.066C632.097 33.066 631.496 32.555 631.296 31.954H627.777C628.133 34.334 630.204 35.624 633.345 35.624ZM633.322 28.373C631.964 28.373 631.073 27.261 631.073 25.548C631.073 23.813 631.964 22.701 633.322 22.701C634.837 22.701 635.639 23.991 635.639 25.526C635.639 27.127 634.904 28.373 633.322 28.373Z" fill="white"/>
<path d="M646.19 29.4631C644.608 29.4631 643.784 28.0841 643.784 26.0151C643.784 23.9461 644.608 22.5451 646.19 22.5451C647.771 22.5451 648.617 23.9461 648.617 26.0151C648.617 28.0841 647.771 29.4631 646.19 29.4631ZM646.212 32.0431C649.887 32.0431 652.293 29.4411 652.293 26.0151C652.293 22.5891 649.887 19.9871 646.212 19.9871C642.559 19.9871 640.109 22.5891 640.109 26.0151C640.109 29.4411 642.559 32.0431 646.212 32.0431Z" fill="white"/>
<path d="M653.352 31.687H656.983V20.298H653.352V31.687ZM653.352 18.719H656.983V15.783H653.352V18.719Z" fill="white"/>
<path d="M658.558 35.446H662.188V30.508H662.233C662.945 31.465 663.992 32.043 665.462 32.043C668.447 32.043 670.429 29.685 670.429 25.993C670.429 22.567 668.58 19.965 665.551 19.965C663.992 19.965 662.879 20.654 662.099 21.677H662.032V20.298H658.558V35.446ZM664.527 29.24C662.968 29.24 662.077 27.972 662.077 26.126C662.077 24.28 662.879 22.879 664.459 22.879C666.019 22.879 666.754 24.169 666.754 26.126C666.754 28.061 665.907 29.24 664.527 29.24Z" fill="white"/>
<path d="M676.341 32.043C679.326 32.043 681.531 30.753 681.531 28.262C681.531 25.348 679.17 24.836 677.165 24.502C675.717 24.236 674.425 24.124 674.425 23.324C674.425 22.612 675.116 22.278 676.007 22.278C677.01 22.278 677.699 22.589 677.834 23.613H681.174C680.996 21.366 679.259 19.965 676.029 19.965C673.334 19.965 671.108 21.21 671.108 23.613C671.108 26.282 673.223 26.816 675.205 27.149C676.72 27.416 678.101 27.528 678.101 28.551C678.101 29.285 677.41 29.685 676.319 29.685C675.116 29.685 674.359 29.129 674.226 27.995H670.796C670.907 30.508 673 32.043 676.341 32.043Z" fill="white"/>
<path d="M686.46 32.021C688.042 32.021 689.044 31.398 689.868 30.286H689.935V31.687H693.41V20.298H689.779V26.66C689.779 28.017 689.022 28.951 687.775 28.951C686.616 28.951 686.06 28.262 686.06 27.016V20.298H682.452V27.772C682.452 30.308 683.832 32.021 686.46 32.021Z" fill="white"/>
<path d="M694.99 31.687H698.621V25.303C698.621 23.946 699.288 22.99 700.425 22.99C701.516 22.99 702.028 23.702 702.028 24.925V31.687H705.659V25.303C705.659 23.946 706.305 22.99 707.463 22.99C708.554 22.99 709.066 23.702 709.066 24.925V31.687H712.697V24.28C712.697 21.722 711.405 19.965 708.821 19.965C707.351 19.965 706.127 20.588 705.235 21.967H705.191C704.611 20.743 703.476 19.965 701.984 19.965C700.336 19.965 699.245 20.743 698.531 21.922H698.465V20.298H694.99V31.687Z" fill="white"/>
<path d="M566.119 8.60707C564.791 9.53407 563.591 10.6311 562.548 11.8651C566.807 11.4701 572.218 12.1141 578.5 15.2511C585.208 18.6011 590.61 18.7141 594.37 17.9901C594.029 16.9591 593.599 15.9671 593.09 15.0251C588.787 15.4781 583.27 14.8781 576.84 11.6681C572.757 9.62907 569.158 8.78907 566.119 8.60707ZM590.576 11.4511C587.178 7.65907 582.239 5.27307 576.742 5.27307C575.128 5.27307 573.562 5.47807 572.068 5.86507C574.091 6.41607 576.239 7.22307 578.5 8.35207C583.208 10.7021 587.272 11.4591 590.576 11.4511ZM595.173 21.6111C590.632 22.5071 584.36 22.3221 576.84 18.5671C569.81 15.0571 564.214 15.1011 560.44 15.9381C560.246 15.9821 560.055 16.0271 559.87 16.0741C559.376 17.1481 558.981 18.2761 558.698 19.4481C559.001 19.3671 559.313 19.2911 559.635 19.2191C564.213 18.2031 570.682 18.2471 578.5 22.1511C585.531 25.6621 591.126 25.6181 594.9 24.7801C595.029 24.7511 595.157 24.7221 595.282 24.6911C595.296 24.3991 595.302 24.1051 595.302 23.8091C595.302 23.0651 595.259 22.3321 595.173 21.6111ZM594.676 28.6031C590.178 29.3881 584.089 29.0871 576.84 25.4671C569.81 21.9561 564.214 22.0011 560.44 22.8381C559.603 23.0241 558.849 23.2501 558.184 23.4891C558.183 23.5961 558.182 23.7021 558.182 23.8091C558.182 34.0471 566.492 42.3461 576.742 42.3461C585.333 42.3461 592.56 36.5171 594.676 28.6031Z" fill="white"/>
</g>
</g>
</g>
<g opacity="0.5">
<g clip-path="url(#clip7_0_93)">
<g clip-path="url(#clip8_0_93)">
<path d="M798.314 16.101C796.75 15.057 794.912 14.5 793.032 14.5V5C796.793 5 800.469 6.114 803.596 8.202C806.723 10.29 809.16 13.257 810.599 16.729C812.038 20.201 812.415 24.021 811.681 27.707C810.948 31.392 809.137 34.778 806.477 37.435C803.818 40.092 800.43 41.902 796.741 42.635C793.053 43.368 789.23 42.992 785.755 41.554C782.281 40.116 779.311 37.68 777.222 34.556C775.132 31.431 774.017 27.758 774.017 24H783.524C783.524 25.879 784.082 27.716 785.127 29.278C786.171 30.84 787.656 32.058 789.393 32.777C791.131 33.496 793.042 33.684 794.887 33.317C796.731 32.951 798.425 32.046 799.755 30.718C801.084 29.389 801.99 27.696 802.356 25.853C802.723 24.011 802.535 22.1 801.815 20.365C801.096 18.629 799.877 17.145 798.314 16.101Z" fill="white"/>
<path d="M783.524 5C783.524 6.248 783.278 7.483 782.801 8.635C782.323 9.788 781.623 10.835 780.74 11.718C779.857 12.6 778.809 13.299 777.655 13.777C776.502 14.254 775.266 14.5 774.017 14.5V24C776.514 24 778.987 23.509 781.294 22.554C783.601 21.599 785.697 20.199 787.462 18.435C789.228 16.671 790.629 14.576 791.584 12.271C792.54 9.966 793.032 7.495 793.032 5H783.524Z" fill="white"/>
<path d="M893.449 18.73H888.836V33.372H893.449V18.73Z" fill="white"/>
<path d="M889.347 15.988C889.829 16.47 890.432 16.711 891.155 16.711C891.879 16.711 892.472 16.47 892.934 15.988C893.397 15.486 893.628 14.884 893.628 14.181C893.628 13.458 893.397 12.855 892.934 12.373C892.472 11.891 891.879 11.65 891.155 11.65C890.432 11.65 889.829 11.891 889.347 12.373C888.884 12.855 888.653 13.458 888.653 14.181C888.653 14.884 888.884 15.486 889.347 15.988Z" fill="white"/>
<path d="M822.653 33.3711V12.1021H827.387V29.2141H836.824V33.3711H822.653Z" fill="white"/>
<path d="M845.348 33.7029C843.841 33.7029 842.474 33.3709 841.248 32.7089C840.042 32.0259 839.087 31.1019 838.384 29.9369C837.68 28.7719 837.329 27.4669 837.329 26.0199C837.329 24.5739 837.68 23.279 838.384 22.134C839.087 20.989 840.042 20.0849 841.248 19.4229C842.454 18.7399 843.821 18.3979 845.348 18.3979C846.876 18.3979 848.243 18.7299 849.449 19.3929C850.655 20.0549 851.61 20.969 852.313 22.134C853.017 23.279 853.369 24.5739 853.369 26.0199C853.369 27.4669 853.017 28.7719 852.313 29.9369C851.61 31.1019 850.655 32.0259 849.449 32.7089C848.243 33.3709 846.876 33.7029 845.348 33.7029ZM845.348 29.5149C846.012 29.5149 846.595 29.3749 847.097 29.0929C847.6 28.792 847.982 28.3799 848.243 27.8579C848.524 27.3159 848.665 26.7029 848.665 26.0199C848.665 25.3379 848.524 24.7449 848.243 24.2429C847.961 23.7209 847.57 23.3189 847.067 23.0379C846.585 22.7369 846.012 22.5859 845.348 22.5859C844.705 22.5859 844.132 22.7369 843.63 23.0379C843.127 23.3189 842.735 23.7209 842.454 24.2429C842.173 24.7649 842.032 25.3679 842.032 26.051C842.032 26.7129 842.173 27.3159 842.454 27.8579C842.735 28.3799 843.127 28.792 843.63 29.0929C844.132 29.3749 844.705 29.5149 845.348 29.5149Z" fill="white"/>
<path d="M857.023 39.096C858.249 39.658 859.666 39.939 861.274 39.939C862.842 39.939 864.239 39.628 865.465 39.005C866.691 38.383 867.656 37.519 868.359 36.414C869.063 35.31 869.415 34.004 869.415 32.498V18.73H864.892V19.714C864.556 19.431 864.174 19.193 863.746 19.001C862.962 18.619 862.068 18.429 861.063 18.429C859.716 18.429 858.52 18.75 857.475 19.393C856.43 20.015 855.606 20.879 855.003 21.984C854.4 23.068 854.098 24.293 854.098 25.659C854.098 27.005 854.4 28.23 855.003 29.335C855.606 30.439 856.43 31.313 857.475 31.956C858.52 32.598 859.716 32.92 861.063 32.92C862.048 32.92 862.942 32.729 863.746 32.347C864.136 32.162 864.488 31.945 864.802 31.694V32.618C864.802 33.643 864.47 34.436 863.807 34.998C863.163 35.561 862.269 35.842 861.123 35.842C860.199 35.842 859.405 35.681 858.741 35.36C858.098 35.039 857.515 34.567 856.993 33.944L854.158 36.776C854.862 37.78 855.817 38.553 857.023 39.096ZM863.596 28.401C863.133 28.682 862.581 28.822 861.937 28.822C861.294 28.822 860.731 28.682 860.249 28.401C859.786 28.119 859.425 27.738 859.163 27.256C858.902 26.754 858.771 26.221 858.771 25.659C858.771 25.056 858.902 24.514 859.163 24.032C859.425 23.55 859.797 23.169 860.279 22.887C860.761 22.606 861.314 22.466 861.937 22.466C862.581 22.466 863.133 22.606 863.596 22.887C864.078 23.169 864.44 23.55 864.681 24.032C864.942 24.514 865.073 25.056 865.073 25.659C865.073 26.262 864.942 26.804 864.681 27.286C864.44 27.748 864.078 28.119 863.596 28.401Z" fill="white"/>
<path d="M879.122 33.7029C877.614 33.7029 876.247 33.3709 875.021 32.7089C873.815 32.0259 872.86 31.1019 872.157 29.9369C871.453 28.7719 871.101 27.4669 871.101 26.0199C871.101 24.5739 871.453 23.279 872.157 22.134C872.86 20.989 873.815 20.0849 875.021 19.4229C876.227 18.7399 877.594 18.3979 879.122 18.3979C880.649 18.3979 882.016 18.7299 883.221 19.3929C884.428 20.0549 885.382 20.969 886.086 22.134C886.79 23.279 887.141 24.5739 887.141 26.0199C887.141 27.4669 886.79 28.7719 886.086 29.9369C885.382 31.1019 884.428 32.0259 883.221 32.7089C882.016 33.3709 880.649 33.7029 879.122 33.7029ZM879.122 29.5149C879.785 29.5149 880.367 29.3749 880.87 29.0929C881.372 28.792 881.754 28.3799 882.016 27.8579C882.297 27.3159 882.438 26.7029 882.438 26.0199C882.438 25.3379 882.297 24.7449 882.016 24.2429C881.734 23.7209 881.343 23.3189 880.84 23.0379C880.358 22.7369 879.785 22.5859 879.122 22.5859C878.478 22.5859 877.905 22.7369 877.403 23.0379C876.9 23.3189 876.508 23.7209 876.227 24.2429C875.945 24.7649 875.805 25.3679 875.805 26.051C875.805 26.7129 875.945 27.3159 876.227 27.8579C876.508 28.3799 876.9 28.792 877.403 29.0929C877.905 29.3749 878.478 29.5149 879.122 29.5149Z" fill="white"/>
<path d="M904.536 33.673C903.552 33.673 902.647 33.482 901.823 33.1C901.389 32.9 900.997 32.66 900.648 32.381V39.548H896.094V18.73H900.707V19.74C901.042 19.467 901.414 19.23 901.823 19.031C902.647 18.629 903.552 18.429 904.536 18.429C905.923 18.429 907.15 18.76 908.214 19.423C909.3 20.086 910.144 20.989 910.747 22.134C911.371 23.279 911.682 24.585 911.682 26.051C911.682 27.517 911.371 28.822 910.747 29.967C910.144 31.112 909.3 32.016 908.214 32.679C907.15 33.341 905.923 33.673 904.536 33.673ZM903.693 29.515C904.355 29.515 904.929 29.365 905.411 29.063C905.914 28.762 906.305 28.35 906.587 27.828C906.868 27.306 907.009 26.713 907.009 26.051C907.009 25.368 906.868 24.765 906.587 24.243C906.305 23.721 905.914 23.319 905.411 23.038C904.929 22.737 904.366 22.586 903.722 22.586C903.08 22.586 902.506 22.737 902.004 23.038C901.521 23.319 901.14 23.721 900.859 24.243C900.577 24.765 900.436 25.368 900.436 26.051C900.436 26.713 900.567 27.306 900.828 27.828C901.11 28.35 901.501 28.762 902.004 29.063C902.506 29.365 903.069 29.515 903.693 29.515Z" fill="white"/>
<path d="M916.196 33.402C917.04 33.623 917.894 33.733 918.758 33.733C920.587 33.733 922.034 33.311 923.1 32.468C924.185 31.624 924.728 30.489 924.728 29.063C924.728 28.14 924.558 27.396 924.215 26.834C923.874 26.252 923.432 25.79 922.889 25.448C922.346 25.107 921.773 24.836 921.17 24.635C920.567 24.434 919.994 24.263 919.452 24.123C918.909 23.982 918.467 23.821 918.125 23.641C917.784 23.46 917.613 23.219 917.613 22.917C917.613 22.636 917.744 22.425 918.004 22.285C918.266 22.124 918.657 22.044 919.18 22.044C919.723 22.044 920.276 22.154 920.838 22.375C921.421 22.596 921.944 22.978 922.406 23.52L925.029 20.869C924.367 20.025 923.502 19.393 922.437 18.971C921.392 18.529 920.246 18.308 919 18.308C917.814 18.308 916.779 18.509 915.895 18.911C915.009 19.312 914.326 19.865 913.844 20.568C913.362 21.25 913.12 22.064 913.12 23.008C913.12 23.892 913.291 24.625 913.633 25.207C913.974 25.769 914.417 26.211 914.959 26.533C915.502 26.854 916.075 27.105 916.678 27.286C917.281 27.467 917.854 27.637 918.397 27.798C918.939 27.939 919.382 28.109 919.723 28.31C920.085 28.491 920.266 28.762 920.266 29.124C920.266 29.405 920.115 29.626 919.813 29.786C919.532 29.947 919.12 30.027 918.578 30.027C917.793 30.027 917.07 29.887 916.407 29.606C915.743 29.304 915.17 28.893 914.688 28.37L912.065 31.022C912.568 31.564 913.171 32.046 913.874 32.468C914.598 32.869 915.372 33.181 916.196 33.402Z" fill="white"/>
<path d="M933.141 33.703C931.795 33.703 930.599 33.432 929.554 32.89C928.528 32.327 927.725 31.564 927.142 30.6C926.558 29.616 926.267 28.491 926.267 27.226V18.73H930.88V27.165C930.88 27.668 930.96 28.099 931.122 28.461C931.302 28.822 931.564 29.104 931.905 29.305C932.247 29.505 932.659 29.606 933.141 29.606C933.825 29.606 934.367 29.395 934.77 28.973C935.172 28.531 935.372 27.929 935.372 27.165V18.73H939.985V27.196C939.985 28.481 939.694 29.616 939.111 30.6C938.528 31.564 937.724 32.327 936.699 32.89C935.674 33.432 934.488 33.703 933.141 33.703Z" fill="white"/>
<path d="M946.891 18.73H942.278V33.372H946.891V24.815C946.891 24.313 946.991 23.892 947.192 23.55C947.413 23.209 947.705 22.948 948.067 22.767C948.429 22.566 948.841 22.466 949.303 22.466C949.966 22.466 950.519 22.676 950.961 23.098C951.424 23.5 951.655 24.072 951.655 24.815V33.372H956.268V24.815C956.268 24.313 956.368 23.892 956.569 23.55C956.791 23.209 957.082 22.948 957.444 22.767C957.805 22.566 958.218 22.466 958.68 22.466C959.343 22.466 959.896 22.676 960.338 23.098C960.8 23.5 961.031 24.072 961.031 24.815V33.372H965.645V24.303C965.645 23.078 965.383 22.034 964.86 21.17C964.358 20.286 963.664 19.614 962.78 19.152C961.916 18.67 960.921 18.429 959.795 18.429C958.649 18.429 957.614 18.68 956.69 19.182C956.089 19.502 955.564 19.915 955.114 20.42C954.695 19.891 954.186 19.458 953.584 19.121C952.78 18.66 951.866 18.429 950.841 18.429C949.755 18.429 948.781 18.66 947.916 19.121C947.54 19.314 947.199 19.544 946.891 19.812V18.73Z" fill="white"/>
</g>
</g>
</g>
<g opacity="0.5">
<g clip-path="url(#clip9_0_93)">
<g clip-path="url(#clip10_0_93)">
<path d="M1215.92 17.3469H1220.54L1214.45 34.0489C1212.71 38.8579 1209.87 40.9619 1205.62 40.7289V36.7209C1208 36.7549 1209.2 35.7509 1210 33.5139L1203.14 17.3469H1207.86L1212.21 28.5699L1215.92 17.3469ZM1195.37 16.8779C1198.92 16.8779 1201.69 19.3509 1201.69 23.7929V34.0479H1197.38V24.3269C1197.38 22.0569 1196.01 20.8859 1194.07 20.8859C1191.96 20.8859 1190.39 22.1229 1190.39 25.0279V34.0479H1186.07V17.3459H1190.39V19.2169C1191.39 17.7139 1193.13 16.8779 1195.37 16.8779ZM1177.84 17.3459H1182.15V34.0479H1177.84V32.0769C1176.64 33.5799 1174.83 34.5149 1172.39 34.5149C1167.94 34.5149 1164.26 30.6749 1164.26 25.6969C1164.26 20.7199 1167.94 16.8779 1172.39 16.8779C1174.83 16.8779 1176.64 17.8139 1177.84 19.3169V17.3459ZM1173.19 30.4069C1175.87 30.4069 1177.84 28.5019 1177.84 25.6969C1177.84 22.8909 1175.87 20.9869 1173.19 20.9869C1170.55 20.9869 1168.57 22.8909 1168.57 25.6969C1168.57 28.5019 1170.55 30.4069 1173.19 30.4069ZM1153.92 16.8779C1158.4 16.8779 1162.08 20.7199 1162.08 25.6969C1162.08 30.6729 1158.4 34.5149 1153.92 34.5149C1151.48 34.5149 1149.71 33.6139 1148.5 32.0779V40.7279H1144.19V17.3459H1148.5V19.3169C1149.71 17.7809 1151.48 16.8789 1153.92 16.8789M1153.12 30.4089C1155.79 30.4089 1157.77 28.5039 1157.77 25.6979C1157.77 22.8929 1155.79 20.9889 1153.12 20.9889C1150.48 20.9889 1148.5 22.8929 1148.5 25.6979C1148.5 28.5039 1150.48 30.4089 1153.12 30.4089ZM1134.2 16.8779C1138.01 16.8779 1140.52 19.5839 1140.52 23.7599V34.0479H1136.21V24.0599C1136.21 22.0889 1135.2 20.8859 1133.39 20.8859C1131.49 20.8859 1130.28 22.1579 1130.28 24.6619V34.0479H1125.97V24.0599C1125.97 22.0889 1124.96 20.8859 1123.16 20.8859C1121.32 20.8859 1120.01 22.1579 1120.01 24.6619V34.0479H1115.7V17.3459H1120.01V19.1159C1120.95 17.7139 1122.52 16.8779 1124.66 16.8779C1126.74 16.8779 1128.28 17.7469 1129.21 19.2839C1130.25 17.7809 1131.92 16.8779 1134.2 16.8779ZM1103.8 34.5149C1098.88 34.5149 1094.96 30.6749 1094.96 25.6969C1094.96 20.7199 1098.88 16.8779 1103.8 16.8779C1108.71 16.8779 1112.66 20.7199 1112.66 25.6969C1112.66 30.6729 1108.71 34.5149 1103.8 34.5149ZM1103.8 30.3069C1106.37 30.3069 1108.35 28.4029 1108.35 25.6969C1108.35 22.9909 1106.37 21.0869 1103.8 21.0869C1101.25 21.0869 1099.28 22.9909 1099.28 25.6969C1099.28 28.4029 1101.25 30.3069 1103.8 30.3069ZM1086.25 34.5149C1081.17 34.5149 1077.42 30.6749 1077.42 25.6969C1077.42 20.7199 1081.17 16.8779 1086.25 16.8779C1089.53 16.8779 1092.38 18.6159 1093.75 21.1879L1090.03 23.3589C1089.36 21.9899 1087.93 21.1209 1086.22 21.1209C1083.64 21.1209 1081.74 23.0249 1081.74 25.6969C1081.74 28.3359 1083.64 30.2399 1086.22 30.2399C1087.96 30.2399 1089.4 29.4049 1090.07 28.0359L1093.81 30.1729C1092.38 32.7779 1089.53 34.5149 1086.25 34.5149Z" fill="white"/>
<path d="M1040.59 7.47595C1039.15 7.47595 1037.98 8.64495 1037.98 10.087V18.237H1029.66C1028.22 18.237 1027.05 19.406 1027.05 20.847V40.087C1027.05 41.528 1028.22 42.697 1029.66 42.697H1048.7C1050.15 42.697 1051.32 41.528 1051.32 40.087V31.937H1059.63C1061.08 31.937 1062.24 30.768 1062.24 29.328V10.087C1062.24 9.74395 1062.18 9.40495 1062.05 9.08795C1061.91 8.77095 1061.72 8.48395 1061.48 8.24195C1061.24 7.99895 1060.95 7.80695 1060.63 7.67595C1060.31 7.54495 1059.97 7.47795 1059.63 7.47795L1040.59 7.47595ZM1051.32 31.937V20.847C1051.32 19.406 1050.15 18.237 1048.7 18.237H1037.98V29.328C1037.98 30.769 1039.15 31.937 1040.59 31.937H1051.32Z" fill="white"/>
</g>
</g>
</g>
</g>
<rect x="1080" width="60" height="48" fill="url(#paint0_linear_0_93)"/>
<rect width="60" height="48" fill="url(#paint1_linear_0_93)"/>
<defs>
<linearGradient id="paint0_linear_0_93" x1="1140" y1="24" x2="1080" y2="24" gradientUnits="userSpaceOnUse">
<stop/>
<stop offset="1" stop-opacity="0"/>
</linearGradient>
<linearGradient id="paint1_linear_0_93" x1="0" y1="24" x2="60" y2="24" gradientUnits="userSpaceOnUse">
<stop/>
<stop offset="1" stop-opacity="0"/>
</linearGradient>
<clipPath id="clip0_0_93">
<rect width="1140" height="48" fill="white"/>
</clipPath>
<clipPath id="clip1_0_93">
<rect width="176" height="38" fill="white" transform="translate(-130.1 5)"/>
</clipPath>
<clipPath id="clip2_0_93">
<rect width="176" height="38" fill="white" transform="translate(-130.1 5)"/>
</clipPath>
<clipPath id="clip3_0_93">
<rect width="171" height="38" fill="white" transform="translate(105.9 5)"/>
</clipPath>
<clipPath id="clip4_0_93">
<rect width="161" height="38" fill="white" transform="translate(336.9 5)"/>
</clipPath>
<clipPath id="clip5_0_93">
<rect width="156" height="38" fill="white" transform="translate(557.9 5)"/>
</clipPath>
<clipPath id="clip6_0_93">
<rect width="156" height="38" fill="white" transform="translate(557.9 5)"/>
</clipPath>
<clipPath id="clip7_0_93">
<rect width="193" height="38" fill="white" transform="translate(773.9 5)"/>
</clipPath>
<clipPath id="clip8_0_93">
<rect width="193" height="38" fill="white" transform="translate(773.9 5)"/>
</clipPath>
<clipPath id="clip9_0_93">
<rect width="196" height="38" fill="white" transform="translate(1026.9 5)"/>
</clipPath>
<clipPath id="clip10_0_93">
<rect width="196" height="38" fill="white" transform="translate(1026.9 5)"/>
</clipPath>
</defs>
</svg>
